<svg xmlns="http://www.w3.org/2000/svg" xmlns:xlink="http://www.w3.org/1999/xlink" width="0" height="0" style="position:absolute">

<symbol id="icon-logo" viewBox="">
        <path d="M284.717 33.34h-19.15c.135.695.355 1.368.675 2.01.428.856 1.014 1.592 1.735 2.216.72.626 1.526 1.137 2.422 1.47.897.34 1.854.475 2.812.46 1.415-.02 2.795-.323 3.994-1.114.992-.66 1.748-1.57 2.328-2.6h4.57c-.402 1.133-.944 2.196-1.65 3.166-.726 1-1.607 1.86-2.608 2.577-.98.703-2.052 1.264-3.2 1.64-1.143.376-2.328.56-3.532.58-1.513.02-3-.245-4.403-.827-1.45-.596-2.735-1.5-3.857-2.605-1.134-1.118-2.063-2.41-2.706-3.882-.634-1.44-.925-2.976-.954-4.553-.028-1.64.227-3.278.84-4.8.624-1.552 1.57-2.906 2.744-4.08 1.18-1.173 2.527-2.13 4.075-2.744 1.513-.602 3.126-.83 4.747-.726 1.48.094 2.91.456 4.25 1.102 1.37.655 2.585 1.576 3.634 2.69 1.14 1.21 2.015 2.545 2.562 4.016.78 2.1.824 4.48.67 6.005zm-6.738-7.745c-1.406-1.203-3.05-1.75-4.885-1.782-.908-.017-1.816.106-2.673.41-.846.293-1.62.74-2.313 1.306-.69.565-1.264 1.235-1.714 2.012-.32.56-.567 1.16-.75 1.775h14.73c-.44-1.456-1.216-2.712-2.398-3.723zm-25.144 16.227c-1.635-1.407-2.185-3.45-2.185-5.56V12.514h4.23v6.39l-1.697 1.23h6.624v4.056h-4.926v11.574c0 1.11.21 2.335 1.03 3.14.84.816 2.113 1.014 3.23 1.014h.667v3.752h-.667c-2.168 0-4.595-.37-6.303-1.848zm-11.41 1.096c-1.466.6-3.008.838-4.58.788-1.522-.047-3-.35-4.39-.972-1.4-.632-2.622-1.54-3.675-2.668-1.053-1.124-1.894-2.404-2.452-3.852-.56-1.44-.812-2.956-.812-4.506 0-1.612.28-3.187.89-4.68.615-1.493 1.53-2.8 2.648-3.95 1.12-1.142 2.408-2.08 3.883-2.69 1.466-.6 3.012-.845 4.59-.784 1.518.054 2.998.376 4.386 1.01 1.405.638 2.622 1.575 3.67 2.71 1.048 1.123 1.902 2.395 2.474 3.835.572 1.437.83 2.962.83 4.514 0 3.36-1.24 6.223-3.582 8.594-1.117 1.134-2.41 2.052-3.882 2.648zm2.653-14.386c-.39-.93-.953-1.76-1.64-2.492-.67-.706-1.44-1.288-2.333-1.678-.87-.385-1.81-.54-2.76-.55-.995-.008-1.977.146-2.9.54-.93.394-1.742.982-2.45 1.702-.707.717-1.288 1.536-1.675 2.476-.39.942-.56 1.945-.575 2.964-.02 1.014.125 2.028.474 2.984.348.96.89 1.816 1.57 2.574.668.74 1.44 1.366 2.34 1.79.885.416 1.828.614 2.8.655 1.024.04 2.043-.08 3.003-.472.963-.4 1.787-1.028 2.505-1.794.73-.784 1.342-1.67 1.735-2.68.385-.986.55-2.03.526-3.09-.027-1.01-.23-1.992-.62-2.927zm-24.67 1.314c0-.79-.14-1.555-.446-2.284-.315-.74-.79-1.393-1.35-1.967-.556-.563-1.193-1.035-1.915-1.35-.7-.303-1.446-.432-2.205-.432-.772 0-1.523.137-2.242.436-.737.31-1.388.776-1.947 1.344-.56.572-1.024 1.22-1.328 1.965-.3.727-.432 1.496-.432 2.285V43.21h-4.23V30.15c0-1.404.214-2.797.72-4.108.495-1.272 1.232-2.4 2.178-3.38.938-.966 2.03-1.738 3.27-2.26 1.28-.53 2.636-.76 4.01-.76 1.372 0 2.71.23 3.978.76 1.242.522 2.334 1.294 3.272 2.26.944.98 1.68 2.108 2.172 3.38.513 1.317.724 2.704.724 4.108v13.064h-4.23V29.846zm-24.316-.65c0-.837-.12-1.617-.366-2.34-.24-.722-.595-1.376-1.067-1.964-.47-.594-1.02-1.036-1.65-1.34-.632-.3-1.334-.454-2.107-.454-.79 0-1.526.132-2.207.396-.68.263-1.312.65-1.892 1.167-1.13 1.033-1.695 2.324-1.695 3.89v13.984h-3.007V28.55c0-.78-.14-1.5-.427-2.147-.288-.65-.72-1.225-1.304-1.742-.565-.514-1.185-.902-1.86-1.165-.68-.264-1.41-.396-2.2-.396-.773 0-1.467.153-2.09.452-.62.306-1.165.748-1.635 1.342-.47.588-.822 1.237-1.044 1.945-.233.722-.346 1.502-.346 2.36v13.335h-2.974V29.538c0-1.355.19-2.577.572-3.676.377-1.1.954-2.058 1.726-2.877 1.428-1.56 3.308-2.442 5.64-2.632 1.56-.134 2.965.14 4.205.82 1.244.678 2.32 1.752 3.24 3.224.922-1.472 2.007-2.546 3.248-3.225 1.242-.678 2.64-.953 4.2-.82 1.17.097 2.224.364 3.167.803.947.437 1.78 1.05 2.515 1.83.767.82 1.352 1.778 1.743 2.877.393 1.1.588 2.32.588 3.676v12.995h-2.97V29.197zm-36.81 13.098c-1.336.55-2.774.794-4.313.736-1.484-.035-2.865-.343-4.136-.917-1.272-.57-2.428-1.404-3.46-2.51-1.035-1.11-1.804-2.312-2.32-3.634-.507-1.317-.766-2.738-.766-4.263 0-1.58.283-3.052.84-4.417.564-1.365 1.398-2.612 2.507-3.733 1.108-1.146 2.332-1.99 3.662-2.542 1.334-.546 2.768-.796 4.31-.736 1.487.056 2.867.372 4.138.95 1.272.58 2.424 1.43 3.46 2.554 1.036 1.107 1.81 2.31 2.338 3.626.52 1.315.783 2.738.783 4.268 0 3.12-1.13 5.825-3.384 8.11-1.11 1.127-2.333 1.968-3.66 2.506zm3.515-14.026c-.408-.977-1.004-1.87-1.774-2.692-.772-.82-1.618-1.43-2.545-1.838-.922-.406-1.93-.602-3.02-.602-1.15-.02-2.202.18-3.166.59-.972.41-1.856 1.03-2.665 1.85-.81.822-1.41 1.715-1.818 2.692-.402.987-.61 2.053-.626 3.215-.02 1.146.15 2.217.514 3.225.368 1.006.935 1.94 1.703 2.795.773.86 1.62 1.505 2.553 1.953.93.437 1.943.676 3.052.72 1.184.055 2.277-.118 3.28-.525.997-.41 1.91-1.06 2.74-1.954.845-.893 1.468-1.857 1.874-2.896.398-1.036.587-2.155.57-3.356-.04-1.142-.263-2.2-.672-3.176zm-25.905 13.04c-1.297-1.124-1.948-2.808-1.948-5.047V13.19h2.894v6.773l-1.17.85h6.1v2.705h-4.93v12.246c0 1.612.416 2.82 1.238 3.63.826.796 2.055 1.197 3.692 1.197v2.406c-2.617 0-4.573-.566-5.876-1.687zm-5.763-.146c-1.505 1.412-3.237 2.058-5.188 1.946-.904-.058-1.733-.275-2.492-.646-.75-.377-1.44-.9-2.062-1.566-1.202-1.333-1.803-2.935-1.803-4.8h2.972v.723c0 .36.095.734.304 1.116.2.38.502.77.897 1.167.395.404.81.698 1.234.893.436.187.873.272 1.323.253.605-.02 1.142-.12 1.61-.298.48-.178.892-.445 1.25-.81.32-.322.56-.706.712-1.135.155-.44.246-.926.263-1.46.02-.933-.23-1.71-.76-2.348-.517-.627-1.306-1.116-2.36-1.46l-2.52-.8c-1.317-.42-2.32-1.087-3.017-1.997-.69-.912-1.064-2.063-1.12-3.453-.04-.837.08-1.617.364-2.34.275-.722.706-1.376 1.29-1.964.605-.594 1.262-1.05 1.982-1.366.716-.326 1.498-.502 2.345-.54.735-.042 1.44.062 2.118.31.676.242 1.322.62 1.945 1.134.636.517 1.128 1.088 1.47 1.728.338.624.54 1.325.593 2.086l.04.648h-3.006v-.494c-.007-.514-.157-.962-.45-1.34-.298-.383-.682-.68-1.157-.89-.478-.218-.994-.326-1.553-.326-.548.02-1.04.152-1.492.415-.444.26-.808.61-1.08 1.055-.275.44-.418.942-.44 1.505-.053.782.152 1.45.61 2 .466.552 1.178.994 2.137 1.313l2.482.84c1.43.495 2.527 1.226 3.3 2.2.764.965 1.195 2.166 1.287 3.594.08.97-.052 1.888-.39 2.737-.34.857-.886 1.646-1.636 2.368zm-16.45-.912c-.884.932-1.888 1.638-3.02 2.107-1.124.476-2.38.712-3.75.712-1.374 0-2.63-.238-3.756-.714-1.135-.47-2.15-1.175-3.05-2.107-.887-.935-1.55-1.99-2-3.17-.446-1.175-.672-2.47-.672-3.884V20.812h2.894v12.73c0 .916.162 1.768.482 2.548.325.786.814 1.51 1.472 2.18 1.317 1.293 2.86 1.942 4.63 1.942.88 0 1.702-.16 2.463-.484.758-.324 1.467-.813 2.124-1.46.66-.667 1.157-1.392 1.49-2.178.33-.78.504-1.632.504-2.55V20.813h2.894v12.385c0 1.412-.225 2.71-.678 3.883-.45 1.18-1.128 2.237-2.03 3.17zm-21.04 2.283l-6.96-8.536-3.42 4.385v4.15h-3.086v-29.34h2.97v20.654l9.93-13.034h3.575l-8.16 10.94 8.874 10.78h-3.722zM52.31 43.668l-28.043-.074c9.753-.948 16.437-7.01 19.485-11.164 3.235-4.413 6.67-10.79 7.563-13.106l.204.025c4.9.584 8.49 1.89 10.81 6.623 3.107 6.343.367 14.298-6.237 16.887-1.298.51-2.533.724-3.785.808zm-19.403-10.69c.83 1.576 2.285 8.416-8.21 10.25-3.12.543-9.2.764-12.153.14-4.177-.876-7.762-3.69-9.683-7.535-.21-.425-.4-.864-.566-1.31-1.43-3.88-1.032-8.356.962-11.958 2.35-4.24 6.444-6.595 11.153-7.11l.33-.036.19-.28c.582-.88.98-1.85 1.47-2.784 4.57-8.73 15.794-11.77 24.233-7.794 5.59 2.633 9.198 8.132 10.263 14.193l.07.4c-6.915 6.485-21.75 6.814-18.06 13.824z"/>
</symbol>
</svg>