<svg width="284" height="42" viewBox="0 0 284 42" xmlns="http://www.w3.org/2000/svg"><g fill="none"><g fill="#FF6524"><path d="M283.717 31.34h-19.15c.135.695.355 1.368.675 2.011.428.855 1.014 1.591 1.735 2.215.721.626 1.526 1.137 2.422 1.47.899.341 1.856.475 2.814.461 1.415-.022 2.795-.324 3.994-1.115.992-.66 1.748-1.569 2.328-2.599h4.569c-.401 1.132-.943 2.195-1.648 3.165-.727 1-1.608 1.86-2.609 2.577-.981.703-2.052 1.264-3.199 1.64-1.144.376-2.329.56-3.533.58-1.513.019-3.001-.245-4.403-.827-1.451-.596-2.736-1.5-3.858-2.605-1.134-1.118-2.063-2.409-2.706-3.882-.634-1.442-.925-2.978-.954-4.555-.028-1.64.227-3.278.84-4.8.624-1.552 1.57-2.906 2.744-4.08 1.179-1.173 2.527-2.129 4.075-2.744 1.513-.602 3.126-.83 4.747-.726 1.481.094 2.91.456 4.249 1.102 1.372.656 2.587 1.577 3.636 2.69 1.141 1.211 2.015 2.546 2.562 4.017.781 2.099.824 4.481.67 6.005zm-6.738-7.745c-1.404-1.203-3.05-1.75-4.883-1.782-.908-.017-1.816.106-2.673.409-.846.294-1.619.741-2.313 1.307-.691.567-1.263 1.237-1.713 2.014-.32.561-.567 1.16-.749 1.775h14.728c-.439-1.456-1.215-2.712-2.397-3.723zM251.837 39.822c-1.635-1.407-2.185-3.451-2.185-5.561v-23.746h4.23v6.39l-1.698 1.231h6.624v4.055h-4.926v11.573c0 1.109.208 2.335 1.03 3.14.838.816 2.112 1.014 3.229 1.014h.667v3.752h-.667c-2.169 0-4.596-.37-6.304-1.848zM240.426 40.918c-1.465.601-3.007.838-4.58.788-1.521-.047-2.999-.349-4.389-.972-1.399-.632-2.622-1.541-3.675-2.668-1.054-1.124-1.895-2.404-2.453-3.852-.559-1.44-.811-2.956-.811-4.506 0-1.612.28-3.187.89-4.679.615-1.494 1.529-2.802 2.648-3.95 1.12-1.143 2.408-2.08 3.883-2.69 1.467-.602 3.013-.846 4.59-.785 1.519.054 2.999.376 4.387 1.01 1.405.638 2.622 1.575 3.671 2.709 1.047 1.124 1.901 2.396 2.473 3.836.572 1.439.83 2.964.83 4.516 0 3.36-1.24 6.223-3.582 8.594-1.117 1.135-2.41 2.053-3.882 2.649zm2.654-14.386c-.391-.931-.952-1.761-1.641-2.492-.669-.706-1.437-1.288-2.331-1.678-.871-.385-1.811-.541-2.76-.549-.995-.009-1.977.145-2.901.538-.93.395-1.741.983-2.449 1.703-.707.717-1.288 1.536-1.675 2.476-.391.942-.559 1.945-.575 2.964-.019 1.014.125 2.028.474 2.984.347.961.89 1.816 1.57 2.574.667.739 1.44 1.366 2.34 1.791.884.415 1.827.613 2.798.654 1.025.041 2.044-.079 3.004-.472.963-.399 1.787-1.028 2.505-1.794.73-.786 1.343-1.673 1.736-2.682.385-.986.55-2.03.526-3.088-.027-1.011-.231-1.994-.621-2.929zM218.412 27.846c0-.789-.14-1.555-.447-2.284-.315-.741-.789-1.393-1.35-1.967-.556-.563-1.193-1.035-1.915-1.349-.699-.304-1.445-.433-2.204-.433-.772 0-1.523.137-2.242.436-.737.311-1.388.778-1.947 1.346-.561.572-1.024 1.22-1.328 1.965-.298.728-.431 1.497-.431 2.286v13.366h-4.23v-13.064c0-1.404.214-2.797.719-4.108.496-1.272 1.233-2.401 2.179-3.379.938-.967 2.031-1.739 3.27-2.261 1.28-.53 2.636-.761 4.01-.761 1.372 0 2.711.231 3.978.761 1.242.522 2.334 1.294 3.272 2.261.944.978 1.681 2.107 2.172 3.379.513 1.317.724 2.704.724 4.108v13.064h-4.23v-13.366zM51.309 41.668l-28.042-.074c9.753-.948 16.437-7.009 19.485-11.164 3.235-4.413 6.669-10.79 7.563-13.106l.204.025c4.903.586 8.49 1.891 10.811 6.625 3.108 6.343.368 14.298-6.236 16.887-1.298.51-2.533.723-3.785.807z" id="Path"/></g><g fill="#00264B"><path d="M194.095 27.197c0-.838-.12-1.618-.366-2.341-.239-.722-.594-1.376-1.066-1.964-.469-.594-1.02-1.036-1.651-1.341-.632-.299-1.334-.453-2.107-.453-.789 0-1.526.132-2.207.396-.68.263-1.312.651-1.892 1.167-1.131 1.031-1.695 2.322-1.695 3.888v13.984h-3.007v-13.984c0-.778-.139-1.498-.427-2.146-.288-.651-.719-1.225-1.304-1.742-.565-.516-1.185-.904-1.861-1.167-.678-.264-1.41-.396-2.2-.396-.772 0-1.466.154-2.088.453-.621.305-1.166.747-1.636 1.341-.469.588-.822 1.237-1.044 1.945-.233.723-.346 1.503-.346 2.36v13.336h-2.974v-12.995c0-1.355.191-2.577.572-3.676.377-1.099.954-2.058 1.726-2.877 1.427-1.56 3.307-2.442 5.638-2.632 1.562-.134 2.966.141 4.206.819 1.244.679 2.32 1.753 3.24 3.225.922-1.472 2.007-2.546 3.248-3.225 1.242-.678 2.641-.953 4.2-.819 1.169.096 2.224.363 3.167.802.946.437 1.779 1.05 2.514 1.83.767.819 1.352 1.778 1.743 2.877.393 1.099.588 2.321.588 3.676v12.995h-2.971v-13.336zM157.285 40.294c-1.336.55-2.774.794-4.313.736-1.485-.035-2.866-.343-4.137-.917-1.272-.569-2.428-1.404-3.46-2.511-1.035-1.108-1.804-2.311-2.319-3.633-.508-1.315-.767-2.736-.767-4.261 0-1.579.284-3.052.84-4.417.565-1.366 1.399-2.613 2.508-3.734 1.108-1.146 2.332-1.989 3.662-2.542 1.335-.546 2.769-.796 4.31-.736 1.488.058 2.868.374 4.139.951 1.272.579 2.424 1.431 3.461 2.555 1.035 1.107 1.81 2.311 2.337 3.626.521 1.314.783 2.737.783 4.267 0 3.121-1.128 5.825-3.383 8.111-1.111 1.126-2.333 1.967-3.661 2.505zm3.515-14.026c-.407-.977-1.003-1.87-1.773-2.692-.772-.821-1.618-1.431-2.545-1.838-.923-.406-1.932-.602-3.02-.602-1.149-.019-2.203.179-3.167.591-.972.41-1.856 1.028-2.665 1.849-.808.822-1.409 1.715-1.817 2.692-.402.987-.611 2.053-.626 3.215-.019 1.146.15 2.217.514 3.225.367 1.006.934 1.94 1.702 2.795.773.86 1.62 1.505 2.553 1.953.93.437 1.943.676 3.052.72 1.184.055 2.277-.118 3.28-.525.997-.412 1.91-1.06 2.739-1.956.846-.893 1.469-1.857 1.875-2.896.398-1.035.587-2.154.57-3.355-.04-1.142-.263-2.2-.672-3.176zM134.896 39.308c-1.297-1.124-1.948-2.808-1.948-5.047v-23.07h2.894v6.772l-1.172.849h6.102v2.706h-4.93v12.246c0 1.612.415 2.819 1.237 3.629.827.797 2.056 1.198 3.693 1.198v2.404c-2.617 0-4.573-.566-5.876-1.687zM129.133 39.162c-1.505 1.412-3.237 2.058-5.188 1.946-.904-.058-1.733-.275-2.492-.646-.751-.377-1.441-.899-2.062-1.566-1.203-1.333-1.804-2.935-1.804-4.8h2.972v.723c0 .362.097.736.306 1.118.201.379.502.769.897 1.167.394.404.81.698 1.233.893.436.187.873.272 1.323.253.605-.019 1.142-.118 1.61-.297.479-.178.892-.445 1.25-.81.319-.322.559-.706.712-1.135.156-.44.247-.926.264-1.459.019-.934-.231-1.711-.759-2.349-.518-.626-1.307-1.115-2.36-1.458l-2.522-.8c-1.316-.42-2.319-1.088-3.016-1.998-.69-.912-1.064-2.063-1.121-3.453-.039-.838.08-1.618.365-2.341.274-.722.705-1.376 1.29-1.964.604-.594 1.261-1.05 1.981-1.366.716-.326 1.498-.502 2.345-.541.735-.041 1.441.063 2.118.31.676.243 1.322.622 1.945 1.135.636.517 1.128 1.088 1.47 1.728.338.624.539 1.325.593 2.086l.04.648h-3.006v-.494c-.007-.514-.157-.962-.451-1.341-.297-.382-.681-.679-1.156-.89-.478-.217-.994-.325-1.553-.325-.548.02-1.041.152-1.492.415-.444.259-.808.607-1.08 1.053-.275.439-.418.942-.439 1.505-.054.783.151 1.451.608 2 .467.553 1.179.995 2.138 1.314l2.482.84c1.431.495 2.527 1.226 3.299 2.201.765.964 1.196 2.165 1.288 3.593.078.97-.054 1.888-.393 2.737-.339.857-.885 1.646-1.635 2.368zM112.682 38.25c-.883.932-1.887 1.638-3.019 2.107-1.124.476-2.379.712-3.75.712-1.374 0-2.629-.236-3.756-.712-1.135-.469-2.15-1.175-3.051-2.107-.886-.934-1.55-1.989-2-3.17-.445-1.174-.671-2.471-.671-3.883v-12.385h2.894v12.729c0 .917.163 1.769.483 2.549.325.786.814 1.511 1.472 2.179 1.317 1.294 2.859 1.943 4.629 1.943.882 0 1.703-.16 2.464-.484.758-.324 1.467-.813 2.124-1.459.658-.668 1.157-1.393 1.491-2.179.33-.78.503-1.632.503-2.549v-12.729h2.894v12.385c0 1.412-.224 2.709-.677 3.883-.45 1.181-1.128 2.236-2.03 3.17zM91.643 40.533l-6.959-8.536-3.422 4.385v4.151h-3.085v-29.342h2.97v20.655l9.93-13.034h3.575l-8.162 10.94 8.875 10.781h-3.722zM31.907 30.979c.831 1.575 2.285 8.415-8.21 10.249-3.12.543-9.2.764-12.153.14-4.177-.876-7.762-3.69-9.683-7.535-.213-.425-.402-.864-.568-1.31-1.431-3.879-1.032-8.356.962-11.958 2.349-4.241 6.444-6.595 11.153-7.109l.331-.037.188-.279c.584-.879.983-1.851 1.471-2.783 4.572-8.732 15.796-11.772 24.235-7.795 5.59 2.633 9.198 8.132 10.263 14.193l.069.399c-6.914 6.486-21.75 6.815-18.058 13.825z"/></g></g></svg>