<?xml version="1.0" encoding="utf-8"?><!DOCTYPE svg PUBLIC "-//W3C//DTD SVG 1.1//EN" "http://www.w3.org/Graphics/SVG/1.1/DTD/svg11.dtd"><svg version="1.1" baseProfile="full" xmlns="http://www.w3.org/2000/svg" xmlns:xlink="http://www.w3.org/1999/xlink" xmlns:ev="http://www.w3.org/2001/xml-events"   height="44px"   width="285px" ><path fill="rgb( 255, 255, 255 )" d="M284.717,33.34 C284.717,33.34 265.567,33.34 265.567,33.34 C265.702,34.035 265.922,34.708 266.242,35.351 C266.67,36.206 267.256,36.942 267.977,37.566 C268.698,38.192 269.503,38.703 270.399,39.036 C271.298,39.377 272.255,39.511 273.213,39.497 C274.628,39.475 276.008,39.173 277.207,38.382 C278.199,37.722 278.955,36.813 279.535,35.783 C279.535,35.783 284.104,35.783 284.104,35.783 C283.703,36.915 283.161,37.978 282.456,38.948 C281.729,39.948 280.848,40.808 279.847,41.525 C278.866,42.228 277.795,42.789 276.648,43.165 C275.504,43.541 274.319,43.725 273.115,43.745 C271.602,43.764 270.114,43.5 268.712,42.918 C267.261,42.322 265.976,41.418 264.854,40.313 C263.72,39.195 262.791,37.904 262.148,36.431 C261.514,34.989 261.223,33.453 261.194,31.876 C261.166,30.236 261.421,28.598 262.034,27.076 C262.658,25.524 263.604,24.17 264.778,22.996 C265.957,21.823 267.305,20.867 268.853,20.252 C270.366,19.65 271.979,19.422 273.6,19.526 C275.081,19.62 276.51,19.982 277.849,20.628 C279.221,21.284 280.436,22.205 281.485,23.318 C282.626,24.529 283.5,25.864 284.047,27.335 C284.828,29.434 284.871,31.816 284.717,33.34 ZM277.979,25.595 C276.575,24.392 274.929,23.845 273.096,23.813 C272.188,23.796 271.28,23.919 270.423,24.222 C269.577,24.516 268.804,24.963 268.11,25.529 C267.419,26.096 266.847,26.766 266.397,27.543 C266.077,28.104 265.83,28.703 265.648,29.318 C265.648,29.318 280.376,29.318 280.376,29.318 C279.937,27.862 279.161,26.606 277.979,25.595 ZM252.837,41.822 C251.202,40.415 250.652,38.371 250.652,36.261 C250.652,36.261 250.652,12.515 250.652,12.515 C250.652,12.515 254.882,12.515 254.882,12.515 C254.882,12.515 254.882,18.905 254.882,18.905 C254.882,18.905 253.184,20.136 253.184,20.136 C253.184,20.136 259.808,20.136 259.808,20.136 C259.808,20.136 259.808,24.191 259.808,24.191 C259.808,24.191 254.882,24.191 254.882,24.191 C254.882,24.191 254.882,35.764 254.882,35.764 C254.882,36.873 255.09,38.099 255.912,38.904 C256.75,39.72 258.024,39.918 259.141,39.918 C259.141,39.918 259.808,39.918 259.808,39.918 C259.808,39.918 259.808,43.67 259.808,43.67 C259.808,43.67 259.141,43.67 259.141,43.67 C256.972,43.67 254.545,43.3 252.837,41.822 ZM241.426,42.918 C239.961,43.519 238.419,43.756 236.846,43.706 C235.325,43.659 233.847,43.357 232.457,42.734 C231.058,42.102 229.835,41.193 228.782,40.066 C227.728,38.942 226.887,37.662 226.329,36.214 C225.77,34.774 225.518,33.258 225.518,31.708 C225.518,30.096 225.798,28.521 226.408,27.029 C227.023,25.535 227.937,24.227 229.056,23.079 C230.176,21.936 231.464,20.999 232.939,20.389 C234.406,19.787 235.952,19.543 237.529,19.604 C239.048,19.658 240.528,19.98 241.916,20.614 C243.321,21.252 244.538,22.189 245.587,23.323 C246.634,24.447 247.488,25.719 248.06,27.159 C248.632,28.598 248.89,30.123 248.89,31.675 C248.89,35.035 247.65,37.898 245.308,40.269 C244.191,41.404 242.898,42.322 241.426,42.918 ZM244.08,28.532 C243.689,27.601 243.128,26.771 242.439,26.04 C241.77,25.334 241.002,24.752 240.108,24.362 C239.237,23.977 238.297,23.821 237.348,23.813 C236.353,23.804 235.371,23.958 234.447,24.351 C233.517,24.746 232.706,25.334 231.998,26.054 C231.291,26.771 230.71,27.59 230.323,28.53 C229.932,29.472 229.764,30.475 229.748,31.494 C229.729,32.508 229.873,33.522 230.222,34.478 C230.569,35.439 231.112,36.294 231.792,37.052 C232.459,37.791 233.232,38.418 234.132,38.843 C235.016,39.258 235.959,39.456 236.93,39.497 C237.955,39.538 238.974,39.418 239.934,39.025 C240.897,38.626 241.721,37.997 242.439,37.231 C243.169,36.445 243.782,35.558 244.175,34.549 C244.56,33.563 244.725,32.519 244.701,31.461 C244.674,30.45 244.47,29.467 244.08,28.532 ZM219.412,29.846 C219.412,29.057 219.272,28.291 218.965,27.562 C218.65,26.821 218.176,26.169 217.615,25.595 C217.059,25.032 216.422,24.56 215.7,24.246 C215.001,23.942 214.255,23.813 213.496,23.813 C212.724,23.813 211.973,23.95 211.254,24.249 C210.517,24.56 209.866,25.027 209.307,25.595 C208.746,26.167 208.283,26.815 207.979,27.56 C207.681,28.288 207.548,29.057 207.548,29.846 C207.548,29.846 207.548,43.212 207.548,43.212 C207.548,43.212 203.318,43.212 203.318,43.212 C203.318,43.212 203.318,30.148 203.318,30.148 C203.318,28.744 203.532,27.351 204.037,26.04 C204.533,24.768 205.27,23.639 206.216,22.661 C207.154,21.694 208.247,20.922 209.486,20.4 C210.766,19.87 212.122,19.639 213.496,19.639 C214.868,19.639 216.207,19.87 217.474,20.4 C218.716,20.922 219.808,21.694 220.746,22.661 C221.69,23.639 222.427,24.768 222.918,26.04 C223.431,27.357 223.642,28.744 223.642,30.148 C223.642,30.148 223.642,43.212 223.642,43.212 C223.642,43.212 219.412,43.212 219.412,43.212 C219.412,43.212 219.412,29.846 219.412,29.846 ZM195.095,29.197 C195.095,28.359 194.975,27.579 194.729,26.856 C194.49,26.134 194.135,25.48 193.663,24.892 C193.194,24.298 192.643,23.856 192.012,23.551 C191.38,23.252 190.678,23.098 189.905,23.098 C189.116,23.098 188.379,23.23 187.698,23.494 C187.018,23.757 186.386,24.145 185.806,24.661 C184.675,25.692 184.111,26.983 184.111,28.549 C184.111,28.549 184.111,42.533 184.111,42.533 C184.111,42.533 181.104,42.533 181.104,42.533 C181.104,42.533 181.104,28.549 181.104,28.549 C181.104,27.771 180.965,27.051 180.677,26.403 C180.389,25.752 179.958,25.178 179.373,24.661 C178.808,24.145 178.188,23.757 177.512,23.494 C176.834,23.23 176.102,23.098 175.312,23.098 C174.54,23.098 173.846,23.252 173.224,23.551 C172.603,23.856 172.058,24.298 171.588,24.892 C171.119,25.48 170.766,26.129 170.544,26.837 C170.311,27.56 170.198,28.34 170.198,29.197 C170.198,29.197 170.198,42.533 170.198,42.533 C170.198,42.533 167.224,42.533 167.224,42.533 C167.224,42.533 167.224,29.538 167.224,29.538 C167.224,28.183 167.415,26.961 167.796,25.862 C168.173,24.763 168.75,23.804 169.522,22.985 C170.949,21.425 172.829,20.543 175.16,20.353 C176.722,20.219 178.126,20.494 179.366,21.172 C180.61,21.851 181.686,22.925 182.606,24.397 C183.528,22.925 184.613,21.851 185.854,21.172 C187.096,20.494 188.495,20.219 190.054,20.353 C191.223,20.449 192.278,20.716 193.221,21.155 C194.167,21.592 195,22.205 195.735,22.985 C196.502,23.804 197.087,24.763 197.478,25.862 C197.871,26.961 198.066,28.183 198.066,29.538 C198.066,29.538 198.066,42.533 198.066,42.533 C198.066,42.533 195.095,42.533 195.095,42.533 C195.095,42.533 195.095,29.197 195.095,29.197 ZM158.285,42.294 C156.949,42.844 155.511,43.088 153.972,43.03 C152.487,42.995 151.106,42.687 149.835,42.113 C148.563,41.544 147.407,40.709 146.375,39.602 C145.34,38.494 144.571,37.291 144.056,35.969 C143.548,34.654 143.289,33.233 143.289,31.708 C143.289,30.129 143.573,28.656 144.129,27.291 C144.694,25.925 145.528,24.678 146.637,23.557 C147.745,22.411 148.969,21.568 150.299,21.015 C151.634,20.469 153.068,20.219 154.609,20.279 C156.097,20.337 157.477,20.653 158.748,21.23 C160.02,21.809 161.172,22.661 162.209,23.785 C163.244,24.892 164.019,26.096 164.546,27.411 C165.067,28.725 165.329,30.148 165.329,31.678 C165.329,34.799 164.201,37.503 161.946,39.789 C160.835,40.915 159.613,41.756 158.285,42.294 ZM161.8,28.268 C161.393,27.291 160.797,26.398 160.027,25.576 C159.255,24.755 158.409,24.145 157.482,23.738 C156.559,23.332 155.55,23.136 154.462,23.136 C153.313,23.117 152.259,23.315 151.295,23.727 C150.323,24.137 149.439,24.755 148.63,25.576 C147.822,26.398 147.221,27.291 146.813,28.268 C146.411,29.255 146.202,30.321 146.187,31.483 C146.168,32.629 146.337,33.7 146.701,34.708 C147.068,35.714 147.635,36.648 148.403,37.503 C149.176,38.363 150.023,39.008 150.956,39.456 C151.886,39.893 152.899,40.132 154.008,40.176 C155.192,40.231 156.285,40.058 157.288,39.651 C158.285,39.239 159.198,38.591 160.027,37.695 C160.873,36.802 161.496,35.838 161.902,34.799 C162.3,33.764 162.489,32.645 162.472,31.444 C162.432,30.302 162.209,29.244 161.8,28.268 ZM135.896,41.308 C134.599,40.184 133.948,38.5 133.948,36.261 C133.948,36.261 133.948,13.191 133.948,13.191 C133.948,13.191 136.842,13.191 136.842,13.191 C136.842,13.191 136.842,19.963 136.842,19.963 C136.842,19.963 135.67,20.812 135.67,20.812 C135.67,20.812 141.772,20.812 141.772,20.812 C141.772,20.812 141.772,23.518 141.772,23.518 C141.772,23.518 136.842,23.518 136.842,23.518 C136.842,23.518 136.842,35.764 136.842,35.764 C136.842,37.376 137.257,38.583 138.079,39.393 C138.906,40.19 140.135,40.591 141.772,40.591 C141.772,40.591 141.772,42.995 141.772,42.995 C139.155,42.995 137.199,42.429 135.896,41.308 ZM130.133,41.162 C128.628,42.574 126.896,43.22 124.945,43.108 C124.041,43.05 123.212,42.833 122.453,42.462 C121.702,42.085 121.012,41.563 120.391,40.896 C119.188,39.563 118.587,37.961 118.587,36.096 C118.587,36.096 121.559,36.096 121.559,36.096 C121.559,36.096 121.559,36.819 121.559,36.819 C121.559,37.181 121.656,37.555 121.865,37.937 C122.066,38.316 122.367,38.706 122.762,39.104 C123.156,39.508 123.572,39.802 123.995,39.997 C124.431,40.184 124.868,40.269 125.318,40.25 C125.923,40.231 126.46,40.132 126.928,39.953 C127.407,39.775 127.82,39.508 128.178,39.143 C128.497,38.821 128.737,38.437 128.89,38.008 C129.046,37.568 129.137,37.082 129.154,36.549 C129.173,35.615 128.923,34.838 128.395,34.2 C127.877,33.574 127.088,33.085 126.035,32.742 C126.035,32.742 123.513,31.942 123.513,31.942 C122.197,31.522 121.194,30.854 120.497,29.944 C119.807,29.032 119.433,27.881 119.376,26.491 C119.337,25.653 119.456,24.873 119.741,24.15 C120.015,23.428 120.446,22.774 121.031,22.186 C121.635,21.592 122.292,21.136 123.012,20.82 C123.728,20.494 124.51,20.318 125.357,20.279 C126.092,20.238 126.798,20.342 127.475,20.589 C128.151,20.832 128.797,21.211 129.42,21.724 C130.056,22.241 130.548,22.812 130.89,23.452 C131.228,24.076 131.429,24.777 131.483,25.538 C131.483,25.538 131.523,26.186 131.523,26.186 C131.523,26.186 128.517,26.186 128.517,26.186 C128.517,26.186 128.517,25.692 128.517,25.692 C128.51,25.178 128.36,24.73 128.066,24.351 C127.769,23.969 127.385,23.672 126.91,23.461 C126.432,23.244 125.916,23.136 125.357,23.136 C124.809,23.156 124.316,23.288 123.865,23.551 C123.421,23.81 123.057,24.158 122.785,24.604 C122.51,25.043 122.367,25.546 122.346,26.109 C122.292,26.892 122.497,27.56 122.954,28.109 C123.421,28.662 124.133,29.104 125.092,29.423 C125.092,29.423 127.574,30.263 127.574,30.263 C129.005,30.758 130.101,31.489 130.873,32.464 C131.638,33.428 132.069,34.629 132.161,36.057 C132.239,37.027 132.107,37.945 131.768,38.794 C131.429,39.651 130.883,40.44 130.133,41.162 ZM113.682,40.25 C112.799,41.182 111.795,41.888 110.663,42.357 C109.539,42.833 108.284,43.069 106.913,43.069 C105.539,43.069 104.284,42.833 103.157,42.357 C102.022,41.888 101.007,41.182 100.106,40.25 C99.22,39.316 98.556,38.261 98.106,37.08 C97.661,35.906 97.435,34.609 97.435,33.197 C97.435,33.197 97.435,20.812 97.435,20.812 C97.435,20.812 100.329,20.812 100.329,20.812 C100.329,20.812 100.329,33.541 100.329,33.541 C100.329,34.458 100.492,35.31 100.812,36.09 C101.137,36.876 101.626,37.601 102.284,38.269 C103.601,39.563 105.143,40.212 106.913,40.212 C107.795,40.212 108.616,40.052 109.377,39.728 C110.135,39.404 110.844,38.915 111.501,38.269 C112.159,37.601 112.658,36.876 112.992,36.09 C113.322,35.31 113.495,34.458 113.495,33.541 C113.495,33.541 113.495,20.812 113.495,20.812 C113.495,20.812 116.389,20.812 116.389,20.812 C116.389,20.812 116.389,33.197 116.389,33.197 C116.389,34.609 116.165,35.906 115.712,37.08 C115.262,38.261 114.584,39.316 113.682,40.25 ZM92.643,42.533 C92.643,42.533 85.684,33.997 85.684,33.997 C85.684,33.997 82.262,38.382 82.262,38.382 C82.262,38.382 82.262,42.533 82.262,42.533 C82.262,42.533 79.177,42.533 79.177,42.533 C79.177,42.533 79.177,13.191 79.177,13.191 C79.177,13.191 82.147,13.191 82.147,13.191 C82.147,13.191 82.147,33.846 82.147,33.846 C82.147,33.846 92.077,20.812 92.077,20.812 C92.077,20.812 95.652,20.812 95.652,20.812 C95.652,20.812 87.49,31.752 87.49,31.752 C87.49,31.752 96.365,42.533 96.365,42.533 C96.365,42.533 92.643,42.533 92.643,42.533 ZM52.309,43.668 C52.309,43.668 24.267,43.594 24.267,43.594 C34.02,42.646 40.704,36.585 43.752,32.43 C46.987,28.017 50.421,21.64 51.315,19.324 C51.315,19.324 51.519,19.349 51.519,19.349 C56.422,19.935 60.009,21.24 62.33,25.974 C65.438,32.317 62.698,40.272 56.094,42.861 C54.796,43.371 53.561,43.584 52.309,43.668 ZM32.907,32.979 C33.738,34.554 35.192,41.394 24.697,43.228 C21.577,43.771 15.497,43.992 12.544,43.368 C8.367,42.492 4.782,39.678 2.861,35.833 C2.648,35.408 2.459,34.969 2.293,34.523 C0.862,30.644 1.261,26.167 3.255,22.565 C5.604,18.324 9.699,15.97 14.408,15.456 C14.408,15.456 14.739,15.419 14.739,15.419 C14.739,15.419 14.927,15.14 14.927,15.14 C15.511,14.261 15.91,13.289 16.398,12.357 C20.97,3.625 32.194,0.585 40.633,4.562 C46.223,7.195 49.831,12.694 50.896,18.755 C50.896,18.755 50.965,19.154 50.965,19.154 C44.051,25.64 29.215,25.969 32.907,32.979 Z "/></svg>