<?xml version="1.0" encoding="utf-8"?><!DOCTYPE svg PUBLIC "-//W3C//DTD SVG 1.1//EN" "http://www.w3.org/Graphics/SVG/1.1/DTD/svg11.dtd"><svg version="1.1" baseProfile="full" xmlns="http://www.w3.org/2000/svg" xmlns:xlink="http://www.w3.org/1999/xlink" xmlns:ev="http://www.w3.org/2001/xml-events"   height="100px"   width="138px" ><path fill="rgb( 78, 78, 78 )" d="M136.198,65.3519999999999 C133.221,68.8809999999999 123.871,70.8449999999998 114.051,71.8440000000001 C110.228,64.752 103.371,60.0360000000001 89.542,58.3649999999998 C90.818,55.8009999999999 91.811,53.0189999999998 92.546,50.1329999999998 C93.736,50.3220000000001 94.963,50.4549999999999 96.272,50.4549999999999 C104.997,50.4549999999999 111.035,46.0540000000001 114.686,39.7289999999998 C131.211,42.4670000000001 135.135,48.884 136.963,61.9920000000002 C137.101,62.2449999999999 137.181,62.538 137.181,62.848 C137.181,62.848 137.181,63.7449999999999 137.181,63.7449999999999 C137.181,64.4459999999999 136.784,65.0569999999998 136.198,65.3519999999999 ZM96.272,45.9099999999999 C95.261,45.9099999999999 94.316,45.8139999999999 93.402,45.6770000000001 C93.793,43.2080000000001 94,40.8119999999999 94,38.6370000000002 C94,21.4229999999998 86.945,14.0360000000001 79.471,11.0219999999999 C81.421,4.84099999999989 85.969,0.0010000000002 96.272,0.0010000000002 C112.388,0.0010000000002 114.454,11.826 114.454,22.1280000000002 C114.454,33.0990000000002 109.692,45.9099999999999 96.272,45.9099999999999 ZM89.454,38.6370000000002 C89.454,50.0599999999999 83.876,68.1819999999998 68.905,68.1819999999998 C55.681,68.1819999999998 48.546,52.9589999999998 48.546,38.6370000000002 C48.546,32.453 48.546,13.6370000000002 68.905,13.6370000000002 C82.541,13.6370000000002 89.454,22.049 89.454,38.6370000000002 ZM44,38.6370000000002 C44,40.8119999999999 44.207,43.2080000000001 44.598,45.6770000000001 C43.684,45.8139999999999 42.739,45.9099999999999 41.728,45.9099999999999 C28.308,45.9099999999999 23.546,33.0990000000002 23.546,22.1280000000002 C23.546,11.826 25.612,0.0010000000002 41.728,0.0010000000002 C52.03,0.0010000000002 56.578,4.84099999999989 58.529,11.0219999999999 C51.055,14.0360000000001 44,21.4229999999998 44,38.6370000000002 ZM41.728,50.4549999999999 C43.037,50.4549999999999 44.264,50.3220000000001 45.454,50.1329999999998 C46.189,53.0189999999998 47.182,55.8009999999999 48.458,58.3649999999998 C34.629,60.0360000000001 27.772,64.752 23.949,71.8440000000001 C14.129,70.8449999999998 4.779,68.8809999999999 1.80200000000002,65.3519999999999 C1.21600000000001,65.0569999999998 0.81900000000002,64.4459999999999 0.81900000000002,63.7449999999999 C0.81900000000002,63.7449999999999 0.81900000000002,62.848 0.81900000000002,62.848 C0.81900000000002,62.538 0.899,62.2449999999999 1.03699999999998,61.9920000000002 C2.86500000000001,48.884 6.78899999999999,42.4670000000001 23.314,39.7289999999998 C26.965,46.0540000000001 33.003,50.4549999999999 41.728,50.4549999999999 ZM50.115,62.6970000000001 C50.115,62.6970000000001 50.765,62.6489999999999 50.765,62.6489999999999 C54.94,68.701 61.002,72.7269999999999 68.905,72.7269999999999 C76.717,72.7269999999999 82.785,68.6700000000001 87.007,62.6460000000002 C87.007,62.6460000000002 87.617,62.6930000000002 87.617,62.6930000000002 C109.705,64.9009999999998 112.097,74.252 114.431,90.587 C114.446,90.6930000000002 114.454,90.8020000000001 114.454,90.9079999999999 C114.454,96.366 106.706,99.9989999999998 68.892,99.9989999999998 C31.257,99.9989999999998 23.546,96.366 23.546,90.9079999999999 C23.546,90.8020000000001 23.554,90.6930000000002 23.569,90.587 C25.972,73.7660000000001 28.245,64.886 50.115,62.6970000000001 Z "/></svg>