<?xml version="1.0" encoding="utf-8"?><!DOCTYPE svg PUBLIC "-//W3C//DTD SVG 1.1//EN" "http://www.w3.org/Graphics/SVG/1.1/DTD/svg11.dtd"><svg version="1.1" baseProfile="full" xmlns="http://www.w3.org/2000/svg" xmlns:xlink="http://www.w3.org/1999/xlink" xmlns:ev="http://www.w3.org/2001/xml-events"   height="100px"   width="108px" ><path fill="rgb( 78, 78, 78 )" d="M94,72 C92.513,72 91.082,72.2379999999998 89.736,72.6680000000001 C89.736,72.6680000000001 61.869,25.5700000000002 61.869,25.5700000000002 C65.566,23.047 68,18.8029999999999 68,14 C68,6.28099999999995 61.72,0 54,0 C46.28,0 40,6.28099999999995 40,14 C40,18.8029999999999 42.434,23.047 46.131,25.5700000000002 C46.131,25.5700000000002 18.263,72.6680000000001 18.263,72.6680000000001 C16.917,72.2379999999998 15.486,72 14,72 C6.28,72 0,78.2809999999999 0,86 C0,93.7190000000001 6.28,100 14,100 C21.039,100 26.864,94.7730000000001 27.84,88 C27.84,88 80.16,88 80.16,88 C81.136,94.7730000000001 86.961,100 94,100 C101.72,100 108,93.7190000000001 108,86 C108,78.2809999999999 101.72,72 94,72 ZM49.736,27.3319999999999 C51.082,27.7620000000002 52.514,28 54,28 C55.486,28 56.918,27.7620000000002 58.263,27.3319999999999 C58.263,27.3319999999999 86.131,74.4299999999998 86.131,74.4299999999998 C82.957,76.596 80.731,80.0329999999999 80.16,84 C80.16,84 27.84,84 27.84,84 C27.269,80.0329999999999 25.042,76.5940000000001 21.868,74.4299999999998 C21.868,74.4299999999998 49.736,27.3319999999999 49.736,27.3319999999999 Z "/></svg>