<?xml version="1.0" encoding="utf-8"?><!DOCTYPE svg PUBLIC "-//W3C//DTD SVG 1.1//EN" "http://www.w3.org/Graphics/SVG/1.1/DTD/svg11.dtd"><svg version="1.1" baseProfile="full" xmlns="http://www.w3.org/2000/svg" xmlns:xlink="http://www.w3.org/1999/xlink" xmlns:ev="http://www.w3.org/2001/xml-events"   height="100px"   width="80px" ><path fill="rgb( 78, 78, 78 )" d="M40,0 C21.079,0 0.71500000000003,3.91199999999981 0.71500000000003,12.5 C0.71500000000003,12.5 0.71500000000003,37.5 0.71500000000003,37.5 C0.71500000000003,37.5 0.71500000000003,62.5 0.71500000000003,62.5 C0.71500000000003,62.5 0.71500000000003,87.5 0.71500000000003,87.5 C0.71500000000003,96.0880000000002 21.079,100 40,100 C58.921,100 79.2850000000001,96.0880000000002 79.2850000000001,87.5 C79.2850000000001,87.5 79.2850000000001,62.5 79.2850000000001,62.5 C79.2850000000001,62.5 79.2850000000001,37.5 79.2850000000001,37.5 C79.2850000000001,37.5 79.2850000000001,12.5 79.2850000000001,12.5 C79.2850000000001,3.91199999999981 58.921,0 40,0 ZM4.55499999999995,16.2429999999999 C5.06700000000001,15.402 6.16800000000001,15.1350000000002 7.00900000000001,15.6500000000001 C12.838,19.2139999999999 25.48,21.4290000000001 40,21.4290000000001 C54.5260000000001,21.4290000000001 67.1690000000001,19.2139999999999 72.9960000000001,15.6480000000001 C73.835,15.1320000000001 74.9359999999999,15.3980000000001 75.451,16.2370000000001 C75.9659999999999,17.0799999999999 75.702,18.1779999999999 74.8599999999999,18.6930000000002 C68.4079999999999,22.6419999999998 55.376,25 40,25 C24.6300000000001,25 11.601,22.6439999999998 5.14700000000005,18.6979999999999 C4.30499999999995,18.183 4.03999999999996,17.0830000000001 4.55499999999995,16.2429999999999 ZM74.8620000000001,68.6909999999998 C68.4110000000001,72.6419999999998 55.3779999999999,75 40,75 C24.6300000000001,75 11.601,72.6439999999998 5.14700000000005,68.6970000000001 C4.30499999999995,68.183 4.03999999999996,67.0830000000001 4.55499999999995,66.2420000000002 C5.06700000000001,65.402 6.16800000000001,65.1329999999998 7.00900000000001,65.6489999999999 C12.838,69.2139999999999 25.48,71.4279999999999 40,71.4279999999999 C54.528,71.4279999999999 67.172,69.212 72.9960000000001,65.6460000000002 C73.8389999999999,65.1329999999998 74.9369999999999,65.3960000000002 75.452,66.2350000000001 C75.9670000000001,67.078 75.703,68.1759999999999 74.8620000000001,68.6909999999998 ZM74.8620000000001,43.6909999999998 C68.4110000000001,47.6419999999998 55.3779999999999,50 40,50 C24.6300000000001,50 11.601,47.6439999999998 5.14700000000005,43.6979999999999 C4.30499999999995,43.183 4.03999999999996,42.0830000000001 4.55499999999995,41.2420000000002 C5.06700000000001,40.402 6.16800000000001,40.1350000000002 7.00900000000001,40.6500000000001 C12.838,44.2139999999999 25.48,46.4290000000001 40,46.4290000000001 C54.528,46.4290000000001 67.172,44.212 72.9960000000001,40.6460000000002 C73.8389999999999,40.1329999999998 74.9369999999999,40.395 75.452,41.2350000000001 C75.9670000000001,42.078 75.703,43.1759999999999 74.8620000000001,43.6909999999998 Z "/></svg>