<?xml version="1.0" encoding="utf-8"?>
<!-- Generator: Adobe Illustrator 18.1.1, SVG Export Plug-In . SVG Version: 6.00 Build 0)  -->
<!DOCTYPE svg PUBLIC "-//W3C//DTD SVG 1.1//EN" "http://www.w3.org/Graphics/SVG/1.1/DTD/svg11.dtd" [
	<!ENTITY ns_extend "http://ns.adobe.com/Extensibility/1.0/">
	<!ENTITY ns_ai "http://ns.adobe.com/AdobeIllustrator/10.0/">
	<!ENTITY ns_graphs "http://ns.adobe.com/Graphs/1.0/">
	<!ENTITY ns_vars "http://ns.adobe.com/Variables/1.0/">
	<!ENTITY ns_imrep "http://ns.adobe.com/ImageReplacement/1.0/">
	<!ENTITY ns_sfw "http://ns.adobe.com/SaveForWeb/1.0/">
	<!ENTITY ns_custom "http://ns.adobe.com/GenericCustomNamespace/1.0/">
	<!ENTITY ns_adobe_xpath "http://ns.adobe.com/XPath/1.0/">
]>
<svg version="1.1" id="Layer_1" xmlns:x="&ns_extend;" xmlns:i="&ns_ai;" xmlns:graph="&ns_graphs;"
	 xmlns="http://www.w3.org/2000/svg" xmlns:xlink="http://www.w3.org/1999/xlink" x="0px" y="0px" width="237.698px"
	 height="48.111px" viewBox="0 0 237.698 48.111" enable-background="new 0 0 237.698 48.111" xml:space="preserve">
<metadata>
	<sfw  xmlns="&ns_sfw;">
		<slices></slices>
		<sliceSourceBounds  y="120.437" x="503.462" height="48.111" width="237.698" bottomLeftOrigin="true"></sliceSourceBounds>
	</sfw>
</metadata>
<g>
	<path fill="#5C6173" d="M196.479,22.056c-0.528-1.437-1.277-2.653-2.253-3.65c-0.974-0.999-2.148-1.767-3.519-2.31
		c-1.372-0.543-2.897-0.814-4.569-0.814c-1.687,0-3.218,0.271-4.598,0.814c-1.378,0.543-2.552,1.311-3.526,2.31
		c-0.976,0.997-1.731,2.213-2.266,3.65c-0.536,1.437-0.806,3.044-0.806,4.818c0,1.79,0.271,3.402,0.806,4.84
		c0.536,1.437,1.291,2.661,2.266,3.673c0.974,1.012,2.148,1.79,3.526,2.333c1.38,0.541,2.911,0.812,4.598,0.812
		c1.671,0,3.196-0.271,4.569-0.812c1.37-0.543,2.545-1.321,3.519-2.333c0.976-1.012,1.725-2.236,2.253-3.673
		c0.526-1.437,0.791-3.05,0.791-4.84C197.27,25.1,197.005,23.493,196.479,22.056z M190.311,32.462
		c-0.902,1.262-2.295,1.893-4.172,1.893c-1.906,0-3.315-0.639-4.23-1.908c-0.917-1.267-1.38-3.109-1.38-5.528
		c0-2.421,0.463-4.275,1.38-5.558c0.915-1.283,2.323-1.921,4.23-1.921c1.877,0,3.271,0.639,4.172,1.914
		c0.902,1.275,1.35,3.132,1.35,5.566S191.213,31.202,190.311,32.462z"/>
	<path fill="#5C6173" d="M172.572,21.822c-0.402-1.43-0.974-2.632-1.715-3.606c-0.74-0.976-1.62-1.717-2.64-2.23
		c-1.018-0.513-2.148-0.77-3.379-0.77c-1.584,0-2.962,0.322-4.136,0.968c-1.172,0.644-2.223,1.489-3.145,2.529l-0.44-2.089
		c-0.219-0.661-0.682-0.991-1.386-0.991h-3.322c0,9.991,0.015,21.169,0.015,31.149c1.918-0.116,3.265-0.539,4.041-1.273
		c0.829-0.783,1.285-2.224,1.367-4.321c0.002-1.222,0.011-3.641,0.011-4.855c0.703,0.69,1.502,1.225,2.398,1.614
		c0.894,0.389,1.973,0.585,3.233,0.585c1.481,0,2.823-0.299,4.02-0.894c1.195-0.593,2.213-1.414,3.057-2.47
		c0.842-1.056,1.489-2.303,1.942-3.74c0.455-1.437,0.682-3,0.682-4.687C173.174,24.894,172.976,23.251,172.572,21.822z
		 M167.191,30.138c-0.25,0.961-0.602,1.759-1.064,2.39c-0.461,0.631-1.027,1.1-1.687,1.407c-0.66,0.309-1.401,0.463-2.221,0.463
		c-0.852,0-1.635-0.154-2.362-0.463c-0.726-0.307-1.401-0.835-2.017-1.584V22.232c0.703-0.863,1.453-1.538,2.243-2.015
		c0.791-0.476,1.754-0.713,2.882-0.713c0.719,0,1.365,0.133,1.929,0.396c0.564,0.265,1.041,0.682,1.437,1.254
		c0.396,0.572,0.704,1.313,0.917,2.23c0.212,0.915,0.315,2.037,0.315,3.357C167.564,28.047,167.439,29.177,167.191,30.138z"/>
	<path fill="#5C6173" d="M234.883,32.351c-0.337,0-0.682,0.103-1.041,0.309c-0.36,0.206-0.778,0.433-1.254,0.682
		c-0.476,0.25-1.035,0.477-1.673,0.682c-0.637,0.204-1.399,0.307-2.28,0.307c-0.879,0-1.679-0.139-2.405-0.41
		c-0.724-0.272-1.355-0.682-1.883-1.231c-0.528-0.551-0.953-1.246-1.277-2.091c-0.322-0.843-0.528-1.841-0.616-2.998h13.97
		c0.497,0,0.835-0.147,1.012-0.433c0.175-0.286,0.263-0.837,0.263-1.658c0-1.628-0.242-3.08-0.732-4.348
		c-0.494-1.267-1.174-2.339-2.039-3.212c-0.865-0.873-1.898-1.533-3.101-1.988c-1.203-0.454-2.516-0.68-3.938-0.68
		c-1.687,0-3.196,0.292-4.54,0.879c-1.342,0.587-2.478,1.378-3.408,2.384c-0.932,1.004-1.651,2.184-2.15,3.541
		c-0.497,1.357-0.747,2.808-0.747,4.348c0,1.98,0.286,3.717,0.858,5.221c0.572,1.504,1.357,2.764,2.354,3.783
		c0.997,1.02,2.171,1.79,3.52,2.31c1.349,0.52,2.808,0.783,4.376,0.783c0.793,0,1.614-0.057,2.457-0.175
		c0.842-0.116,1.671-0.322,2.485-0.608c0.814-0.286,1.591-0.667,2.339-1.144c0.749-0.476,1.422-1.063,2.024-1.767l-1.561-1.98
		C235.674,32.521,235.336,32.351,234.883,32.351z M224.294,20.516c0.902-0.894,2.133-1.342,3.704-1.342
		c0.806,0,1.517,0.134,2.125,0.404c0.608,0.27,1.107,0.644,1.504,1.115c0.397,0.469,0.696,1.012,0.894,1.635
		c0.198,0.623,0.294,1.291,0.294,1.994h-10.251C222.813,22.68,223.393,21.412,224.294,20.516z"/>
	<path fill="#5C6173" d="M213.704,27.058c-0.52-0.461-1.115-0.842-1.775-1.144c-0.659-0.301-1.328-0.566-2.009-0.801
		c-0.682-0.234-1.357-0.454-2.017-0.652c-0.659-0.198-1.246-0.417-1.767-0.667c-0.52-0.25-0.94-0.543-1.254-0.873
		c-0.315-0.33-0.477-0.732-0.477-1.216c0-0.734,0.307-1.329,0.917-1.782c0.608-0.456,1.445-0.682,2.514-0.682
		c0.69,0,1.29,0.074,1.797,0.219c0.505,0.147,0.953,0.309,1.35,0.492c0.394,0.183,0.747,0.352,1.048,0.499
		c0.299,0.147,0.579,0.219,0.842,0.219c0.25,0,0.454-0.051,0.616-0.147c0.162-0.093,0.316-0.255,0.463-0.49l1.231-1.959
		c-0.85-0.835-1.914-1.51-3.191-2.023c-1.275-0.514-2.689-0.77-4.245-0.77c-1.393,0-2.617,0.183-3.681,0.557
		c-1.064,0.374-1.95,0.873-2.661,1.496c-0.713,0.623-1.256,1.355-1.622,2.192c-0.366,0.837-0.549,1.715-0.549,2.64
		c0,0.997,0.16,1.847,0.476,2.552c0.315,0.703,0.734,1.298,1.254,1.782c0.52,0.484,1.113,0.879,1.78,1.195
		c0.667,0.315,1.35,0.593,2.047,0.827c0.696,0.234,1.378,0.448,2.045,0.646c0.667,0.198,1.262,0.425,1.782,0.675
		c0.52,0.25,0.94,0.541,1.254,0.879c0.314,0.339,0.469,0.77,0.469,1.298c0,0.352-0.067,0.69-0.206,1.02
		c-0.139,0.33-0.358,0.623-0.659,0.873c-0.301,0.248-0.682,0.446-1.144,0.6c-0.461,0.154-1.02,0.234-1.666,0.234
		c-0.82,0-1.494-0.093-2.03-0.286c-0.536-0.189-1.005-0.394-1.401-0.616c-0.395-0.219-0.74-0.425-1.041-0.616
		c-0.301-0.191-0.623-0.286-0.961-0.286c-0.337,0-0.616,0.067-0.837,0.198c-0.219,0.131-0.41,0.322-0.572,0.572l-1.254,2.068
		c0.44,0.396,0.955,0.762,1.534,1.1c0.578,0.337,1.208,0.631,1.891,0.88c0.682,0.248,1.393,0.439,2.135,0.578
		c0.74,0.141,1.494,0.213,2.272,0.213c1.468,0,2.764-0.19,3.886-0.564c1.121-0.374,2.061-0.894,2.823-1.563
		c0.763-0.667,1.342-1.458,1.731-2.375c0.389-0.917,0.58-1.914,0.58-3c0-0.907-0.154-1.685-0.469-2.331
		C214.642,28.078,214.225,27.519,213.704,27.058z"/>
	<path fill="#5C6173" d="M82.343,6.394h-25.1v4.86h9.591c0,6.97,0.017,13.899,0.025,20.852c0.09,2.287,0.587,3.858,1.49,4.71
		c0.845,0.799,2.314,1.262,4.403,1.386V11.255h9.591V6.394z"/>
	<path fill="#5C6173" d="M128.471,17.665c-0.639-0.755-1.437-1.342-2.39-1.759c-0.954-0.417-2.046-0.623-3.278-0.623
		c-0.763,0-1.466,0.072-2.111,0.227c-0.646,0.154-1.246,0.366-1.812,0.639c-0.565,0.27-1.1,0.6-1.606,0.989
		c-0.506,0.389-0.99,0.814-1.445,1.269l-0.374-1.782c-0.22-0.661-0.682-0.991-1.386-0.991h-3.322v22.57h5.434V21.881
		c0.733-0.734,1.511-1.313,2.331-1.738c0.821-0.425,1.701-0.638,2.64-0.638c1.29,0,2.251,0.375,2.882,1.13
		c0.631,0.755,0.946,1.826,0.946,3.204v14.364h5.432V23.839c0-1.26-0.161-2.419-0.491-3.469
		C129.593,19.321,129.109,18.42,128.471,17.665z"/>
	<path fill="#5C6173" d="M147.839,27.058c-0.522-0.461-1.115-0.842-1.775-1.144c-0.661-0.301-1.327-0.566-2.009-0.801
		c-0.682-0.234-1.357-0.454-2.017-0.652c-0.66-0.198-1.246-0.417-1.768-0.667c-0.52-0.25-0.939-0.543-1.253-0.873
		c-0.315-0.33-0.477-0.732-0.477-1.216c0-0.734,0.308-1.329,0.916-1.782c0.609-0.456,1.445-0.682,2.515-0.682
		c0.689,0,1.29,0.074,1.796,0.219c0.506,0.147,0.953,0.309,1.349,0.492c0.395,0.183,0.748,0.352,1.047,0.499
		c0.301,0.147,0.579,0.219,0.844,0.219c0.25,0,0.454-0.051,0.616-0.147c0.162-0.093,0.316-0.255,0.463-0.49l1.231-1.959
		c-0.85-0.835-1.914-1.51-3.191-2.023c-1.275-0.514-2.69-0.77-4.245-0.77c-1.393,0-2.618,0.183-3.681,0.557
		c-1.063,0.374-1.95,0.873-2.662,1.496c-0.711,0.623-1.253,1.355-1.62,2.192c-0.366,0.837-0.55,1.715-0.55,2.64
		c0,0.997,0.161,1.847,0.477,2.552c0.315,0.703,0.734,1.298,1.254,1.782c0.52,0.484,1.115,0.879,1.782,1.195
		c0.667,0.315,1.35,0.593,2.045,0.827c0.697,0.234,1.379,0.448,2.046,0.646c0.667,0.198,1.261,0.425,1.782,0.675
		c0.52,0.25,0.938,0.541,1.253,0.879c0.315,0.339,0.469,0.77,0.469,1.298c0,0.352-0.066,0.69-0.205,1.02
		c-0.139,0.33-0.359,0.623-0.66,0.873c-0.3,0.248-0.682,0.446-1.143,0.6c-0.462,0.154-1.02,0.234-1.665,0.234
		c-0.822,0-1.496-0.093-2.032-0.286c-0.535-0.189-1.004-0.394-1.4-0.616c-0.396-0.219-0.741-0.425-1.041-0.616
		c-0.301-0.191-0.623-0.286-0.961-0.286c-0.338,0-0.617,0.067-0.836,0.198c-0.22,0.131-0.411,0.322-0.573,0.572l-1.253,2.068
		c0.439,0.396,0.953,0.762,1.533,1.1c0.58,0.337,1.209,0.631,1.892,0.88c0.682,0.248,1.393,0.439,2.133,0.578
		c0.741,0.141,1.496,0.213,2.274,0.213c1.467,0,2.765-0.19,3.886-0.564c1.121-0.374,2.061-0.894,2.823-1.563
		c0.763-0.667,1.342-1.458,1.731-2.375c0.389-0.917,0.579-1.914,0.579-3c0-0.907-0.154-1.685-0.471-2.331
		C148.776,28.078,148.359,27.519,147.839,27.058z"/>
	<path fill="#5C6173" d="M106.332,20.431c-0.375-1.071-0.924-1.996-1.643-2.766c-0.144-0.154-0.336-0.318-0.551-0.483
		c-1.142-0.875-2.546-1.234-3.953-1.539c-1.661-0.36-4.405-0.36-5.388-0.36c-2.758,0-3.32,0.26-5.583,0.807
		c-1.202,0.29-3.439,1.532-5.353,3.461l-0.329-2.552c-0.074-0.513-0.22-0.873-0.44-1.071c-0.22-0.198-0.609-0.294-1.167-0.294h-3.19
		v22.57h5.434V26.292c0-0.853,0.363-2.148,0.806-2.877c0.044-0.072,0.097-0.156,0.156-0.249c0.575-0.895,1.336-1.668,2.235-2.238
		c0.07-0.044,0.133-0.082,0.185-0.111c0.047-0.026,0.106-0.058,0.175-0.093c1.675-0.869,3.529-1.335,5.415-1.401
		c0.918-0.032,1.822-0.062,2.267-0.071c1.072,0,2.898-0.057,4.463,0.936c0.354,0.225,0.831,0.698,1.026,1.069
		c0.419,0.798,0.688,1.949,0.688,3.116v0.895c-1.715,0.044-3.241,0.17-4.575,0.381c-1.335,0.213-2.501,0.492-3.505,0.829
		c-1.005,0.337-1.855,0.734-2.545,1.187c-0.689,0.456-1.247,0.94-1.678,1.453c-0.433,0.513-0.748,1.048-0.94,1.612
		c-0.19,0.564-0.285,1.136-0.285,1.71c0,1.012,0.161,1.898,0.483,2.661c0.323,0.762,0.778,1.401,1.364,1.914
		c0.586,0.513,1.284,0.894,2.09,1.151c0.806,0.257,1.687,0.389,2.64,0.389c0.807,0,1.547-0.072,2.214-0.213
		c0.668-0.139,1.29-0.337,1.877-0.6c0.587-0.263,1.151-0.595,1.694-0.984c0.543-0.387,1.1-0.835,1.673-1.35l0.484,1.63
		c0.161,0.469,0.381,0.778,0.659,0.93c0.278,0.154,0.675,0.235,1.189,0.235h2.463V23.949
		C106.889,22.672,106.706,21.5,106.332,20.431z M101.588,32.374c-0.778,0.822-1.57,1.43-2.384,1.834
		c-0.814,0.402-1.781,0.608-2.896,0.608c-0.909,0-1.642-0.206-2.207-0.616c-0.282-0.205-0.495-0.478-0.637-0.819
		c-0.142-0.341-0.214-0.75-0.214-1.226c0-0.242,0.035-0.475,0.105-0.699c0.07-0.224,0.174-0.438,0.313-0.643
		c0.07-0.103,0.151-0.202,0.244-0.299c0.185-0.193,0.416-0.372,0.693-0.539c0.138-0.083,0.288-0.164,0.449-0.241
		c0.645-0.307,1.504-0.564,2.574-0.762c1.07-0.198,2.39-0.33,3.96-0.404V32.374z"/>
</g>
<linearGradient id="SVGID_1_" gradientUnits="userSpaceOnUse" x1="0" y1="24.0553" x2="48.2384" y2="24.0553">
	<stop  offset="0" style="stop-color:#E64749"/>
	<stop  offset="1" style="stop-color:#F2696B"/>
</linearGradient>
<path fill="url(#SVGID_1_)" d="M48.238,0l-14.23,8.831L24.119,2.64L14.23,8.831L0,0l0,48.111L14.419,39.1l9.7,6.072l9.7-6.072
	l14.419,9.011L48.238,0z M46.538,2.887v13.788l-11.022-6.9L46.538,2.887z M1.7,2.887l11.022,6.888L1.7,16.675V2.887z M24.119,43.284
	l-8.191-5.128l8.191-5.119l8.191,5.119L24.119,43.284z"/>
</svg>
