<?xml version="1.0" encoding="utf-8"?><!DOCTYPE svg PUBLIC "-//W3C//DTD SVG 1.1//EN" "http://www.w3.org/Graphics/SVG/1.1/DTD/svg11.dtd"><svg version="1.1" baseProfile="full" xmlns="http://www.w3.org/2000/svg" xmlns:xlink="http://www.w3.org/1999/xlink" xmlns:ev="http://www.w3.org/2001/xml-events"   height="100px"   width="72px" ><path fill="rgb( 78, 78, 78 )" d="M50.2859999999999,75 C49.49,75 48.729,74.9899999999998 47.99,74.9740000000002 C47.264,74.9580000000001 46.692,74.3589999999999 46.692,73.6329999999998 C46.692,73.6329999999998 46.692,62.9459999999999 46.692,62.9459999999999 C46.692,62.2069999999999 47.292,61.607 48.032,61.607 C48.032,61.607 69.035,61.607 69.035,61.607 C69.035,61.607 69.035,13.393 69.035,13.393 C69.035,13.393 31.5359999999999,13.393 31.5359999999999,13.393 C31.5359999999999,13.393 31.5359999999999,19.8220000000001 31.5359999999999,19.8220000000001 C31.5359999999999,20.5610000000001 30.936,21.1610000000001 30.196,21.1610000000001 C29.457,21.1610000000001 28.857,20.5610000000001 28.857,19.8220000000001 C28.857,19.8220000000001 28.857,9.375 28.857,9.375 C28.857,2.62899999999991 34.866,0 50.2859999999999,0 C65.706,0 71.7140000000001,2.62899999999991 71.7140000000001,9.375 C71.7140000000001,9.375 71.7140000000001,65.625 71.7140000000001,65.625 C71.7140000000001,72.3719999999998 65.706,75 50.2859999999999,75 ZM51.625,66.9639999999999 C51.625,66.9639999999999 48.946,66.9639999999999 48.946,66.9639999999999 C48.206,66.9639999999999 47.607,67.5639999999999 47.607,68.3040000000001 C47.607,69.0430000000001 48.206,69.643 48.946,69.643 C48.946,69.643 51.625,69.643 51.625,69.643 C52.365,69.643 52.9640000000001,69.0430000000001 52.9640000000001,68.3040000000001 C52.9640000000001,67.5639999999999 52.365,66.9639999999999 51.625,66.9639999999999 ZM54.303,5.35699999999997 C54.303,5.35699999999997 46.268,5.35699999999997 46.268,5.35699999999997 C45.527,5.35699999999997 44.928,5.95699999999988 44.928,6.69700000000012 C44.928,7.43600000000015 45.527,8.03600000000006 46.268,8.03600000000006 C46.268,8.03600000000006 54.303,8.03600000000006 54.303,8.03600000000006 C55.044,8.03600000000006 55.643,7.43600000000015 55.643,6.69700000000012 C55.643,5.95699999999988 55.044,5.35699999999997 54.303,5.35699999999997 ZM43.143,32.143 C43.143,32.143 43.143,92.857 43.143,92.857 C43.143,96.7950000000001 39.939,100 36,100 C36,100 7.42899999999997,100 7.42899999999997,100 C3.48900000000003,100 0.28599999999994,96.7950000000001 0.28599999999994,92.857 C0.28599999999994,92.857 0.28599999999994,32.143 0.28599999999994,32.143 C0.28599999999994,28.2040000000002 3.48900000000003,25 7.42899999999997,25 C7.42899999999997,25 36,25 36,25 C39.939,25 43.143,28.2040000000002 43.143,32.143 ZM19.929,92.857 C19.929,92.857 23.5,92.857 23.5,92.857 C24.487,92.857 25.2859999999999,92.0569999999998 25.2859999999999,91.0709999999999 C25.2859999999999,90.085 24.487,89.2849999999999 23.5,89.2849999999999 C23.5,89.2849999999999 19.929,89.2849999999999 19.929,89.2849999999999 C18.942,89.2849999999999 18.143,90.085 18.143,91.0709999999999 C18.143,92.0569999999998 18.942,92.857 19.929,92.857 ZM3.85699999999997,42.857 C3.85699999999997,42.857 3.85699999999997,82.143 3.85699999999997,82.143 C3.85699999999997,82.143 39.571,82.143 39.571,82.143 C39.571,82.143 39.571,42.857 39.571,42.857 C39.571,42.857 3.85699999999997,42.857 3.85699999999997,42.857 ZM14.054,32.6610000000001 C13.375,32 12.179,32 11.518,32.6610000000001 C11.196,33 11,33.4459999999999 11,33.9290000000001 C11,34.393 11.196,34.857 11.518,35.1970000000001 C11.856,35.5169999999998 12.322,35.7139999999999 12.7859999999999,35.7139999999999 C13.25,35.7139999999999 13.7140000000001,35.5169999999998 14.054,35.1970000000001 C14.374,34.857 14.572,34.393 14.572,33.9290000000001 C14.572,33.4639999999999 14.374,33 14.054,32.6610000000001 ZM30.643,32.143 C30.643,32.143 19.929,32.143 19.929,32.143 C18.942,32.143 18.143,32.9430000000002 18.143,33.9290000000001 C18.143,34.915 18.942,35.7139999999999 19.929,35.7139999999999 C19.929,35.7139999999999 30.643,35.7139999999999 30.643,35.7139999999999 C31.63,35.7139999999999 32.429,34.915 32.429,33.9290000000001 C32.429,32.9430000000002 31.63,32.143 30.643,32.143 Z "/></svg>