<?xml version="1.0" encoding="UTF-8" standalone="no"?>
<svg width="284px" height="42px" viewBox="0 0 284 42" version="1.1" xmlns="http://www.w3.org/2000/svg" xmlns:xlink="http://www.w3.org/1999/xlink" xmlns:sketch="http://www.bohemiancoding.com/sketch/ns">
    <!-- Generator: Sketch 3.2.1 (9971) - http://www.bohemiancoding.com/sketch -->
    <title>logo</title>
    <desc>Created with Sketch.</desc>
    <defs></defs>
    <g id="Page-1" stroke="none" stroke-width="1" fill="none" fill-rule="evenodd" sketch:type="MSPage">
        <g id="logo" sketch:type="MSLayerGroup">
            <g id="second-color" transform="translate(23.000000, 10.000000)" fill="#F6A623" sketch:type="MSShapeGroup">
                <path d="M260.717,21.34 L241.567,21.34 C241.702,22.035 241.922,22.708 242.242,23.351 C242.67,24.206 243.256,24.942 243.977,25.566 C244.698,26.192 245.503,26.703 246.399,27.036 C247.298,27.377 248.255,27.511 249.213,27.497 C250.628,27.475 252.008,27.173 253.207,26.382 C254.199,25.722 254.955,24.813 255.535,23.783 L260.104,23.783 C259.703,24.915 259.161,25.978 258.456,26.948 C257.729,27.948 256.848,28.808 255.847,29.525 C254.866,30.228 253.795,30.789 252.648,31.165 C251.504,31.541 250.319,31.725 249.115,31.745 C247.602,31.764 246.114,31.5 244.712,30.918 C243.261,30.322 241.976,29.418 240.854,28.313 C239.72,27.195 238.791,25.904 238.148,24.431 C237.514,22.989 237.223,21.453 237.194,19.876 C237.166,18.236 237.421,16.598 238.034,15.076 C238.658,13.524 239.604,12.17 240.778,10.996 C241.957,9.823 243.305,8.867 244.853,8.252 C246.366,7.65 247.979,7.422 249.6,7.526 C251.081,7.62 252.51,7.982 253.849,8.628 C255.221,9.284 256.436,10.205 257.485,11.318 C258.626,12.529 259.5,13.864 260.047,15.335 C260.828,17.434 260.871,19.816 260.717,21.34 Z M253.979,13.595 C252.575,12.392 250.929,11.845 249.096,11.813 C248.188,11.796 247.28,11.919 246.423,12.222 C245.577,12.516 244.804,12.963 244.11,13.529 C243.419,14.096 242.847,14.766 242.397,15.543 C242.077,16.104 241.83,16.703 241.648,17.318 L256.376,17.318 C255.937,15.862 255.161,14.606 253.979,13.595 Z" id="Path"></path>
                <path d="M228.837,29.822 C227.202,28.415 226.652,26.371 226.652,24.261 L226.652,0.515 L230.882,0.515 L230.882,6.905 L229.184,8.136 L235.808,8.136 L235.808,12.191 L230.882,12.191 L230.882,23.764 C230.882,24.873 231.09,26.099 231.912,26.904 C232.75,27.72 234.024,27.918 235.141,27.918 L235.808,27.918 L235.808,31.67 L235.141,31.67 C232.972,31.67 230.545,31.3 228.837,29.822 L228.837,29.822 Z" id="Path"></path>
                <path d="M217.426,30.918 C215.961,31.519 214.419,31.756 212.846,31.706 C211.325,31.659 209.847,31.357 208.457,30.734 C207.058,30.102 205.835,29.193 204.782,28.066 C203.728,26.942 202.887,25.662 202.329,24.214 C201.77,22.774 201.518,21.258 201.518,19.708 C201.518,18.096 201.798,16.521 202.408,15.029 C203.023,13.535 203.937,12.227 205.056,11.079 C206.176,9.936 207.464,8.999 208.939,8.389 C210.406,7.787 211.952,7.543 213.529,7.604 C215.048,7.658 216.528,7.98 217.916,8.614 C219.321,9.252 220.538,10.189 221.587,11.323 C222.634,12.447 223.488,13.719 224.06,15.159 C224.632,16.598 224.89,18.123 224.89,19.675 C224.89,23.035 223.65,25.898 221.308,28.269 C220.191,29.404 218.898,30.322 217.426,30.918 Z M220.08,16.532 C219.689,15.601 219.128,14.771 218.439,14.04 C217.77,13.334 217.002,12.752 216.108,12.362 C215.237,11.977 214.297,11.821 213.348,11.813 C212.353,11.804 211.371,11.958 210.447,12.351 C209.517,12.746 208.706,13.334 207.998,14.054 C207.291,14.771 206.71,15.59 206.323,16.53 C205.932,17.472 205.764,18.475 205.748,19.494 C205.729,20.508 205.873,21.522 206.222,22.478 C206.569,23.439 207.112,24.294 207.792,25.052 C208.459,25.791 209.232,26.418 210.132,26.843 C211.016,27.258 211.959,27.456 212.93,27.497 C213.955,27.538 214.974,27.418 215.934,27.025 C216.897,26.626 217.721,25.997 218.439,25.231 C219.169,24.445 219.782,23.558 220.175,22.549 C220.56,21.563 220.725,20.519 220.701,19.461 C220.674,18.45 220.47,17.467 220.08,16.532 Z" id="Path"></path>
                <path d="M195.412,17.846 C195.412,17.057 195.272,16.291 194.965,15.562 C194.65,14.821 194.176,14.169 193.615,13.595 C193.059,13.032 192.422,12.56 191.7,12.246 C191.001,11.942 190.255,11.813 189.496,11.813 C188.724,11.813 187.973,11.95 187.254,12.249 C186.517,12.56 185.866,13.027 185.307,13.595 C184.746,14.167 184.283,14.815 183.979,15.56 C183.681,16.288 183.548,17.057 183.548,17.846 L183.548,31.212 L179.318,31.212 L179.318,18.148 C179.318,16.744 179.532,15.351 180.037,14.04 C180.533,12.768 181.27,11.639 182.216,10.661 C183.154,9.694 184.247,8.922 185.486,8.4 C186.766,7.87 188.122,7.639 189.496,7.639 C190.868,7.639 192.207,7.87 193.474,8.4 C194.716,8.922 195.808,9.694 196.746,10.661 C197.69,11.639 198.427,12.768 198.918,14.04 C199.431,15.357 199.642,16.744 199.642,18.148 L199.642,31.212 L195.412,31.212 L195.412,17.846 L195.412,17.846 Z" id="Path"></path>
                <path d="M28.309,31.668 L0.267,31.594 C10.02,30.646 16.704,24.585 19.752,20.43 C22.987,16.017 26.421,9.64 27.315,7.324 L27.519,7.349 C32.422,7.935 36.009,9.24 38.33,13.974 C41.438,20.317 38.698,28.272 32.094,30.861 C30.796,31.371 29.561,31.584 28.309,31.668 L28.309,31.668 Z" id="Path"></path>
            </g>
            <g id="main-color" fill="#4990E2" sketch:type="MSShapeGroup">
                <path d="M194.095,27.197 C194.095,26.359 193.975,25.579 193.729,24.856 C193.49,24.134 193.135,23.48 192.663,22.892 C192.194,22.298 191.643,21.856 191.012,21.551 C190.38,21.252 189.678,21.098 188.905,21.098 C188.116,21.098 187.379,21.23 186.698,21.494 C186.018,21.757 185.386,22.145 184.806,22.661 C183.675,23.692 183.111,24.983 183.111,26.549 L183.111,40.533 L180.104,40.533 L180.104,26.549 C180.104,25.771 179.965,25.051 179.677,24.403 C179.389,23.752 178.958,23.178 178.373,22.661 C177.808,22.145 177.188,21.757 176.512,21.494 C175.834,21.23 175.102,21.098 174.312,21.098 C173.54,21.098 172.846,21.252 172.224,21.551 C171.603,21.856 171.058,22.298 170.588,22.892 C170.119,23.48 169.766,24.129 169.544,24.837 C169.311,25.56 169.198,26.34 169.198,27.197 L169.198,40.533 L166.224,40.533 L166.224,27.538 C166.224,26.183 166.415,24.961 166.796,23.862 C167.173,22.763 167.75,21.804 168.522,20.985 C169.949,19.425 171.829,18.543 174.16,18.353 C175.722,18.219 177.126,18.494 178.366,19.172 C179.61,19.851 180.686,20.925 181.606,22.397 C182.528,20.925 183.613,19.851 184.854,19.172 C186.096,18.494 187.495,18.219 189.054,18.353 C190.223,18.449 191.278,18.716 192.221,19.155 C193.167,19.592 194,20.205 194.735,20.985 C195.502,21.804 196.087,22.763 196.478,23.862 C196.871,24.961 197.066,26.183 197.066,27.538 L197.066,40.533 L194.095,40.533 L194.095,27.197 L194.095,27.197 Z" id="Path"></path>
                <path d="M157.285,40.294 C155.949,40.844 154.511,41.088 152.972,41.03 C151.487,40.995 150.106,40.687 148.835,40.113 C147.563,39.544 146.407,38.709 145.375,37.602 C144.34,36.494 143.571,35.291 143.056,33.969 C142.548,32.654 142.289,31.233 142.289,29.708 C142.289,28.129 142.573,26.656 143.129,25.291 C143.694,23.925 144.528,22.678 145.637,21.557 C146.745,20.411 147.969,19.568 149.299,19.015 C150.634,18.469 152.068,18.219 153.609,18.279 C155.097,18.337 156.477,18.653 157.748,19.23 C159.02,19.809 160.172,20.661 161.209,21.785 C162.244,22.892 163.019,24.096 163.546,25.411 C164.067,26.725 164.329,28.148 164.329,29.678 C164.329,32.799 163.201,35.503 160.946,37.789 C159.835,38.915 158.613,39.756 157.285,40.294 Z M160.8,26.268 C160.393,25.291 159.797,24.398 159.027,23.576 C158.255,22.755 157.409,22.145 156.482,21.738 C155.559,21.332 154.55,21.136 153.462,21.136 C152.313,21.117 151.259,21.315 150.295,21.727 C149.323,22.137 148.439,22.755 147.63,23.576 C146.822,24.398 146.221,25.291 145.813,26.268 C145.411,27.255 145.202,28.321 145.187,29.483 C145.168,30.629 145.337,31.7 145.701,32.708 C146.068,33.714 146.635,34.648 147.403,35.503 C148.176,36.363 149.023,37.008 149.956,37.456 C150.886,37.893 151.899,38.132 153.008,38.176 C154.192,38.231 155.285,38.058 156.288,37.651 C157.285,37.239 158.198,36.591 159.027,35.695 C159.873,34.802 160.496,33.838 160.902,32.799 C161.3,31.764 161.489,30.645 161.472,29.444 C161.432,28.302 161.209,27.244 160.8,26.268 Z" id="Path"></path>
                <path d="M134.896,39.308 C133.599,38.184 132.948,36.5 132.948,34.261 L132.948,11.191 L135.842,11.191 L135.842,17.963 L134.67,18.812 L140.772,18.812 L140.772,21.518 L135.842,21.518 L135.842,33.764 C135.842,35.376 136.257,36.583 137.079,37.393 C137.906,38.19 139.135,38.591 140.772,38.591 L140.772,40.995 C138.155,40.995 136.199,40.429 134.896,39.308 L134.896,39.308 Z" id="Path"></path>
                <path d="M129.133,39.162 C127.628,40.574 125.896,41.22 123.945,41.108 C123.041,41.05 122.212,40.833 121.453,40.462 C120.702,40.085 120.012,39.563 119.391,38.896 C118.188,37.563 117.587,35.961 117.587,34.096 L120.559,34.096 L120.559,34.819 C120.559,35.181 120.656,35.555 120.865,35.937 C121.066,36.316 121.367,36.706 121.762,37.104 C122.156,37.508 122.572,37.802 122.995,37.997 C123.431,38.184 123.868,38.269 124.318,38.25 C124.923,38.231 125.46,38.132 125.928,37.953 C126.407,37.775 126.82,37.508 127.178,37.143 C127.497,36.821 127.737,36.437 127.89,36.008 C128.046,35.568 128.137,35.082 128.154,34.549 C128.173,33.615 127.923,32.838 127.395,32.2 C126.877,31.574 126.088,31.085 125.035,30.742 L122.513,29.942 C121.197,29.522 120.194,28.854 119.497,27.944 C118.807,27.032 118.433,25.881 118.376,24.491 C118.337,23.653 118.456,22.873 118.741,22.15 C119.015,21.428 119.446,20.774 120.031,20.186 C120.635,19.592 121.292,19.136 122.012,18.82 C122.728,18.494 123.51,18.318 124.357,18.279 C125.092,18.238 125.798,18.342 126.475,18.589 C127.151,18.832 127.797,19.211 128.42,19.724 C129.056,20.241 129.548,20.812 129.89,21.452 C130.228,22.076 130.429,22.777 130.483,23.538 L130.523,24.186 L127.517,24.186 L127.517,23.692 C127.51,23.178 127.36,22.73 127.066,22.351 C126.769,21.969 126.385,21.672 125.91,21.461 C125.432,21.244 124.916,21.136 124.357,21.136 C123.809,21.156 123.316,21.288 122.865,21.551 C122.421,21.81 122.057,22.158 121.785,22.604 C121.51,23.043 121.367,23.546 121.346,24.109 C121.292,24.892 121.497,25.56 121.954,26.109 C122.421,26.662 123.133,27.104 124.092,27.423 L126.574,28.263 C128.005,28.758 129.101,29.489 129.873,30.464 C130.638,31.428 131.069,32.629 131.161,34.057 C131.239,35.027 131.107,35.945 130.768,36.794 C130.429,37.651 129.883,38.44 129.133,39.162 L129.133,39.162 Z" id="Path"></path>
                <path d="M112.682,38.25 C111.799,39.182 110.795,39.888 109.663,40.357 C108.539,40.833 107.284,41.069 105.913,41.069 C104.539,41.069 103.284,40.833 102.157,40.357 C101.022,39.888 100.007,39.182 99.106,38.25 C98.22,37.316 97.556,36.261 97.106,35.08 C96.661,33.906 96.435,32.609 96.435,31.197 L96.435,18.812 L99.329,18.812 L99.329,31.541 C99.329,32.458 99.492,33.31 99.812,34.09 C100.137,34.876 100.626,35.601 101.284,36.269 C102.601,37.563 104.143,38.212 105.913,38.212 C106.795,38.212 107.616,38.052 108.377,37.728 C109.135,37.404 109.844,36.915 110.501,36.269 C111.159,35.601 111.658,34.876 111.992,34.09 C112.322,33.31 112.495,32.458 112.495,31.541 L112.495,18.812 L115.389,18.812 L115.389,31.197 C115.389,32.609 115.165,33.906 114.712,35.08 C114.262,36.261 113.584,37.316 112.682,38.25 L112.682,38.25 Z" id="Path"></path>
                <path d="M91.643,40.533 L84.684,31.997 L81.262,36.382 L81.262,40.533 L78.177,40.533 L78.177,11.191 L81.147,11.191 L81.147,31.846 L91.077,18.812 L94.652,18.812 L86.49,29.752 L95.365,40.533 L91.643,40.533 L91.643,40.533 Z" id="Path"></path>
                <path d="M31.907,30.979 C32.738,32.554 34.192,39.394 23.697,41.228 C20.577,41.771 14.497,41.992 11.544,41.368 C7.367,40.492 3.782,37.678 1.861,33.833 C1.648,33.408 1.459,32.969 1.293,32.523 C-0.138,28.644 0.261,24.167 2.255,20.565 C4.604,16.324 8.699,13.97 13.408,13.456 L13.739,13.419 L13.927,13.14 C14.511,12.261 14.91,11.289 15.398,10.357 C19.97,1.625 31.194,-1.415 39.633,2.562 C45.223,5.195 48.831,10.694 49.896,16.755 L49.965,17.154 C43.051,23.64 28.215,23.969 31.907,30.979 L31.907,30.979 Z" id="Path"></path>
            </g>
        </g>
    </g>
</svg>