<?xml version="1.0" encoding="UTF-8" standalone="no"?>
<svg width="37px" height="32px" viewBox="0 0 37 32" version="1.1" xmlns="http://www.w3.org/2000/svg" xmlns:xlink="http://www.w3.org/1999/xlink" xmlns:sketch="http://www.bohemiancoding.com/sketch/ns">
    <!-- Generator: Sketch 3.2.1 (9971) - http://www.bohemiancoding.com/sketch -->
    <title>alert</title>
    <desc>Created with Sketch.</desc>
    <defs></defs>
    <g id="Page-1" stroke="none" stroke-width="1" fill="none" fill-rule="evenodd" sketch:type="MSPage">
        <path d="M14.2177874,3.71430377 C16.570451,-0.0243040535 20.3871324,-0.020712738 22.7375361,3.71430377 L35.211421,23.5365017 C38.1528806,28.2107627 36.0641963,32 30.5397968,32 L6.4155267,32 C0.894000243,32 -1.20034288,28.2151895 1.74390243,23.5365017 L14.2177874,3.71430377 Z M16.4722305,9.26230835 C16.4722305,8.15384764 17.3623709,7.2552627 18.4776617,7.2552627 C19.5852308,7.2552627 20.4830929,8.15820095 20.4830929,9.26230835 L20.4830929,19.6826471 C20.4830929,20.7911078 19.5929526,21.6896928 18.4776617,21.6896928 C17.3700927,21.6896928 16.4722305,20.7867545 16.4722305,19.6826471 L16.4722305,9.26230835 Z M18.4776617,26.8448464 C19.5852308,26.8448464 20.4830929,25.92163 20.4830929,24.782785 C20.4830929,23.6439399 19.5852308,22.7207235 18.4776617,22.7207235 C17.3700927,22.7207235 16.4722305,23.6439399 16.4722305,24.782785 C16.4722305,25.92163 17.3700927,26.8448464 18.4776617,26.8448464 Z" id="alert" fill="#9B9B9B" sketch:type="MSShapeGroup"></path>
    </g>
</svg>