<?xml version="1.0" encoding="utf-8"?><!DOCTYPE svg PUBLIC "-//W3C//DTD SVG 1.1//EN" "http://www.w3.org/Graphics/SVG/1.1/DTD/svg11.dtd"><svg version="1.1" baseProfile="full" xmlns="http://www.w3.org/2000/svg" xmlns:xlink="http://www.w3.org/1999/xlink" xmlns:ev="http://www.w3.org/2001/xml-events"   height="101px"   width="81px" ><path fill="rgb( 255, 255, 255 )" d="M79.38,43.058 C79.38,43.058 72.9,43.058 72.9,43.058 C72.005,43.058 71.28,42.3340000000001 71.28,41.4400000000001 C71.28,40.546 72.005,39.8219999999999 72.9,39.8219999999999 C72.9,39.8219999999999 79.38,39.8219999999999 79.38,39.8219999999999 C80.275,39.8219999999999 81,40.546 81,41.4400000000001 C81,42.3340000000001 80.275,43.058 79.38,43.058 ZM68.04,70.5630000000001 C67.625,70.5630000000001 67.211,70.405 66.895,70.0889999999999 C66.895,70.0889999999999 62.035,65.2349999999999 62.035,65.2349999999999 C61.402,64.6030000000001 61.402,63.5799999999999 62.035,62.9480000000001 C62.667,62.316 63.693,62.316 64.325,62.9480000000001 C64.325,62.9480000000001 69.185,67.8019999999999 69.185,67.8019999999999 C69.818,68.433 69.818,69.4570000000001 69.185,70.0889999999999 C68.869,70.405 68.455,70.5630000000001 68.04,70.5630000000001 ZM64.325,19.932 C64.009,20.248 63.595,20.4059999999999 63.18,20.4059999999999 C62.765,20.4059999999999 62.351,20.248 62.035,19.932 C61.402,19.3 61.402,18.277 62.035,17.645 C62.035,17.645 66.895,12.7909999999999 66.895,12.7909999999999 C67.527,12.1590000000001 68.553,12.1590000000001 69.185,12.7909999999999 C69.818,13.423 69.818,14.4469999999999 69.185,15.079 C69.185,15.079 64.325,19.932 64.325,19.932 ZM40.5,10.6990000000001 C39.605,10.6990000000001 38.88,9.97499999999991 38.88,9.0809999999999 C38.88,9.0809999999999 38.88,2.60899999999992 38.88,2.60899999999992 C38.88,1.71499999999992 39.605,0.99099999999999 40.5,0.99099999999999 C41.395,0.99099999999999 42.12,1.71499999999992 42.12,2.60899999999992 C42.12,2.60899999999992 42.12,9.0809999999999 42.12,9.0809999999999 C42.12,9.97499999999991 41.395,10.6990000000001 40.5,10.6990000000001 ZM17.82,20.4059999999999 C17.405,20.4059999999999 16.991,20.248 16.675,19.932 C16.675,19.932 11.815,15.079 11.815,15.079 C11.182,14.4469999999999 11.182,13.423 11.815,12.7909999999999 C12.447,12.1590000000001 13.473,12.1590000000001 14.105,12.7909999999999 C14.105,12.7909999999999 18.965,17.645 18.965,17.645 C19.598,18.277 19.598,19.3 18.965,19.932 C18.649,20.248 18.235,20.4059999999999 17.82,20.4059999999999 ZM8.09999999999999,43.058 C8.09999999999999,43.058 1.62,43.058 1.62,43.058 C0.72499999999999,43.058 0,42.3340000000001 0,41.4400000000001 C0,40.546 0.72499999999999,39.8219999999999 1.62,39.8219999999999 C1.62,39.8219999999999 8.09999999999999,39.8219999999999 8.09999999999999,39.8219999999999 C8.995,39.8219999999999 9.72,40.546 9.72,41.4400000000001 C9.72,42.3340000000001 8.995,43.058 8.09999999999999,43.058 ZM16.675,62.9480000000001 C17.307,62.316 18.333,62.316 18.965,62.9480000000001 C19.598,63.5799999999999 19.598,64.6030000000001 18.965,65.2349999999999 C18.965,65.2349999999999 14.105,70.0889999999999 14.105,70.0889999999999 C13.789,70.405 13.375,70.5630000000001 12.96,70.5630000000001 C12.545,70.5630000000001 12.131,70.405 11.815,70.0889999999999 C11.182,69.4570000000001 11.182,68.433 11.815,67.8019999999999 C11.815,67.8019999999999 16.675,62.9480000000001 16.675,62.9480000000001 ZM40.5,13.9349999999999 C56.715,13.9349999999999 68.04,25.2449999999999 68.04,41.4400000000001 C68.04,47.942 66.051,52.933 61.175,58.6669999999999 C61.146,58.704 55.063,66.454 53.676,77.0160000000001 C53.568,78.9059999999999 52.116,81.8889999999999 48.6,81.8889999999999 C48.6,81.8889999999999 32.4,81.8889999999999 32.4,81.8889999999999 C28.714,81.8889999999999 27.463,78.6569999999999 27.317,76.9449999999999 C25.934,66.414 19.855,58.7070000000001 19.794,58.6289999999999 C14.948,52.8920000000001 12.96,47.902 12.96,41.4400000000001 C12.96,25.2449999999999 24.285,13.9349999999999 40.5,13.9349999999999 ZM32.4,56.002 C32.4,56.002 35.64,56.002 35.64,56.002 C35.64,56.002 35.64,77.0350000000001 35.64,77.0350000000001 C35.64,77.9290000000001 36.365,78.653 37.26,78.653 C38.155,78.653 38.88,77.9290000000001 38.88,77.0350000000001 C38.88,77.0350000000001 38.88,56.002 38.88,56.002 C38.88,56.002 42.12,56.002 42.12,56.002 C42.12,56.002 42.12,77.0350000000001 42.12,77.0350000000001 C42.12,77.9290000000001 42.845,78.653 43.74,78.653 C44.635,78.653 45.36,77.9290000000001 45.36,77.0350000000001 C45.36,77.0350000000001 45.36,56.002 45.36,56.002 C45.36,56.002 48.6,56.002 48.6,56.002 C52.173,56.002 55.08,53.098 55.08,49.53 C55.08,45.962 52.173,43.058 48.6,43.058 C45.027,43.058 42.12,45.962 42.12,49.53 C42.12,49.53 42.12,52.7660000000001 42.12,52.7660000000001 C42.12,52.7660000000001 38.88,52.7660000000001 38.88,52.7660000000001 C38.88,52.7660000000001 38.88,49.53 38.88,49.53 C38.88,45.962 35.973,43.058 32.4,43.058 C28.827,43.058 25.92,45.962 25.92,49.53 C25.92,53.098 28.827,56.002 32.4,56.002 ZM32.4,46.2940000000001 C34.187,46.2940000000001 35.64,47.7439999999999 35.64,49.53 C35.64,49.53 35.64,52.7660000000001 35.64,52.7660000000001 C35.64,52.7660000000001 32.4,52.7660000000001 32.4,52.7660000000001 C30.613,52.7660000000001 29.16,51.3140000000001 29.16,49.53 C29.16,47.7439999999999 30.613,46.2940000000001 32.4,46.2940000000001 ZM48.6,46.2940000000001 C50.387,46.2940000000001 51.84,47.7439999999999 51.84,49.53 C51.84,51.3140000000001 50.387,52.7660000000001 48.6,52.7660000000001 C48.6,52.7660000000001 45.36,52.7660000000001 45.36,52.7660000000001 C45.36,52.7660000000001 45.36,49.53 45.36,49.53 C45.36,47.7439999999999 46.813,46.2940000000001 48.6,46.2940000000001 ZM32.082,85.1569999999999 C32.082,85.1569999999999 48.282,81.921 48.282,81.921 C49.162,81.7470000000001 50.014,82.3140000000001 50.188,83.1900000000001 C50.364,84.066 49.795,84.9179999999999 48.918,85.0930000000001 C48.918,85.0930000000001 32.718,88.3299999999999 32.718,88.3299999999999 C32.61,88.3510000000001 32.504,88.3610000000001 32.398,88.3610000000001 C31.642,88.3610000000001 30.965,87.8299999999999 30.812,87.0609999999999 C30.636,86.184 31.205,85.3320000000001 32.082,85.1569999999999 ZM32.082,91.6289999999999 C32.082,91.6289999999999 48.282,88.3920000000001 48.282,88.3920000000001 C49.162,88.2159999999999 50.014,88.7840000000001 50.188,89.6610000000001 C50.364,90.538 49.795,91.3900000000001 48.918,91.5650000000001 C48.918,91.5650000000001 32.718,94.8009999999999 32.718,94.8009999999999 C32.61,94.8230000000001 32.504,94.8330000000001 32.398,94.8330000000001 C31.642,94.8330000000001 30.965,94.3019999999999 30.812,93.5319999999999 C30.636,92.6559999999999 31.205,91.8040000000001 32.082,91.6289999999999 ZM33.702,97.7760000000001 C33.702,97.7760000000001 46.662,95.1880000000001 46.662,95.1880000000001 C47.543,95.0129999999999 48.394,95.5820000000001 48.568,96.4570000000001 C48.744,97.3340000000001 48.175,98.1859999999999 47.298,98.3610000000001 C47.298,98.3610000000001 34.338,100.949 34.338,100.949 C34.23,100.971 34.124,100.981 34.018,100.981 C33.262,100.981 32.585,100.448 32.432,99.681 C32.256,98.8030000000001 32.825,97.952 33.702,97.7760000000001 Z "/></svg>