<?xml version="1.0" encoding="UTF-8" standalone="no"?>
<svg width="41px" height="28px" viewBox="0 0 41 28" version="1.1" xmlns="http://www.w3.org/2000/svg" xmlns:xlink="http://www.w3.org/1999/xlink" xmlns:sketch="http://www.bohemiancoding.com/sketch/ns">
    <!-- Generator: Sketch 3.2.1 (9971) - http://www.bohemiancoding.com/sketch -->
    <title>cloud</title>
    <desc>Created with Sketch.</desc>
    <defs></defs>
    <g id="Page-1" stroke="none" stroke-width="1" fill="none" fill-rule="evenodd" sketch:type="MSPage">
        <path d="M33.1688291,27.4486056 L15.1265968,27.3997617 C21.4016803,26.7740316 25.7021681,22.7734517 27.6632524,20.0309324 C29.7446525,17.1181195 31.9540892,12.9089629 32.5292891,11.3802806 L32.6605428,11.3967819 C35.8151347,11.7835729 38.1230117,12.6449417 39.6163439,15.7696316 C41.6160321,19.9563464 39.8531152,25.2070663 35.6040994,26.915943 C34.7689657,27.2525699 33.9743663,27.3931611 33.1688291,27.4486056 Z M20.6855757,20.3933014 C21.2202414,21.4328845 22.1557455,25.9476456 15.4032589,27.1581824 C13.3958498,27.516591 9.48397577,27.6624627 7.58401457,27.2505897 C4.89653135,26.6723835 2.58994113,24.814995 1.35396908,22.277092 C1.21692481,21.9965696 1.09532214,21.7068064 0.988517686,21.4124229 C0.0678117998,18.8520781 0.324528535,15.8970218 1.60746881,13.5195117 C3.11881621,10.7202278 5.7535406,9.16646357 8.7833128,8.82719644 L8.99627831,8.80277449 L9.11723758,8.61861976 C9.49298338,8.03843336 9.74970011,7.39686206 10.0636795,6.78169286 C13.0053058,1.01811195 20.2268312,-0.988448511 25.6564867,1.63658141 C29.2530946,3.37450039 31.574483,7.00413065 32.2597044,11.0047106 L32.304099,11.2680716 C27.8556291,15.549174 18.3101416,15.7663314 20.6855757,20.3933014 Z" id="cloud" fill="#9B9B9B" sketch:type="MSShapeGroup"></path>
    </g>
</svg>