<?xml version="1.0" encoding="utf-8"?><!DOCTYPE svg PUBLIC "-//W3C//DTD SVG 1.1//EN" "http://www.w3.org/Graphics/SVG/1.1/DTD/svg11.dtd"><svg version="1.1" baseProfile="full" xmlns="http://www.w3.org/2000/svg" xmlns:xlink="http://www.w3.org/1999/xlink" xmlns:ev="http://www.w3.org/2001/xml-events"   height="102px"   width="91px" ><path fill="rgb( 255, 255, 255 )" d="M90.114,78.7470000000001 C90.114,78.7470000000001 47.1849999999999,101.998 47.1849999999999,101.998 C47.1849999999999,101.998 47.1849999999999,51.1469999999999 47.1849999999999,51.1469999999999 C47.1849999999999,51.1469999999999 91,27.415 91,27.415 C91,27.415 91,77.2539999999999 91,77.2539999999999 C91,77.877 90.659,78.451 90.114,78.7470000000001 ZM1.68499999999995,24.479 C1.68499999999995,24.479 44.701,1.18000000000006 44.701,1.18000000000006 C45.2,0.91200000000003 45.8,0.91200000000003 46.299,1.18000000000006 C46.299,1.18000000000006 89.3150000000001,24.479 89.3150000000001,24.479 C89.3150000000001,24.479 45.5,48.2090000000001 45.5,48.2090000000001 C45.5,48.2090000000001 1.68499999999995,24.479 1.68499999999995,24.479 ZM43.8150000000001,101.998 C43.8150000000001,101.998 0.88599999999997,78.7470000000001 0.88599999999997,78.7470000000001 C0.34100000000001,78.451 0,77.877 0,77.2539999999999 C0,77.2539999999999 0,27.4169999999999 0,27.4169999999999 C0,27.4169999999999 43.8150000000001,51.1469999999999 43.8150000000001,51.1469999999999 C43.8150000000001,51.1469999999999 43.8150000000001,101.998 43.8150000000001,101.998 Z "/></svg>