<?xml version="1.0" encoding="UTF-8" standalone="no"?>
<svg width="40px" height="32px" viewBox="0 0 40 32" version="1.1" xmlns="http://www.w3.org/2000/svg" xmlns:xlink="http://www.w3.org/1999/xlink" xmlns:sketch="http://www.bohemiancoding.com/sketch/ns">
    <!-- Generator: Sketch 3.2.1 (9971) - http://www.bohemiancoding.com/sketch -->
    <title>diamond</title>
    <desc>Created with Sketch.</desc>
    <defs></defs>
    <g id="Page-1" stroke="none" stroke-width="1" fill="none" fill-rule="evenodd" sketch:type="MSPage">
        <path d="M11.7566017,0 L-1.0658141e-14,11.9479015 L20.2066602,32 L40,11.9479015 L28.1056268,0 L11.7566017,0 Z M31.4956894,11.3467908 L21.2879361,28.8032948 L37.5047927,12.265889 L31.4956894,11.3467908 Z M20.5898533,28.7905033 L30.5839663,11.1016239 L20.5898533,9.25441073 L20.5898533,28.7905033 Z M27.5922354,1.29927503 L20.8553527,8.17902678 L30.3446713,10.0509728 L27.5922354,1.29927503 Z M28.8762628,2.64090405 L31.4158691,10.2737779 L37.1586609,11.2594788 L28.8762628,2.64090405 Z M8.44245289,11.2822515 L18.9831941,28.8032948 L2.44049261,12.2744568 L8.44245289,11.2822515 Z M19.5901542,28.8600275 L9.42080164,11.0272591 L19.5901542,9.219649 L19.5901542,28.8600275 Z M12.4058999,1.29927503 L19.1427826,8.17902678 L9.65346406,10.0509728 L12.4058999,1.29927503 Z M11.0487355,2.64090405 L8.50912929,10.2737779 L2.55145756,11.2673863 L11.0487355,2.64090405 Z M19.9769413,7.65483939 L26.3793772,1.3246334 L13.7596729,1.32463351 L19.9769413,7.65483939 Z" id="diamond" fill="#9B9B9B" sketch:type="MSShapeGroup"></path>
    </g>
</svg>