<?xml version="1.0" encoding="UTF-8" standalone="no"?>
<svg width="29px" height="22px" viewBox="0 0 29 22" version="1.1" xmlns="http://www.w3.org/2000/svg" xmlns:xlink="http://www.w3.org/1999/xlink" xmlns:sketch="http://www.bohemiancoding.com/sketch/ns">
    <!-- Generator: Sketch 3.2.2 (9983) - http://www.bohemiancoding.com/sketch -->
    <title>mail</title>
    <desc>Created with Sketch.</desc>
    <defs></defs>
    <g id="Page-1" stroke="none" stroke-width="1" fill="none" fill-rule="evenodd" sketch:type="MSPage">
        <path d="M26.0743017,4.26046986 L26.0743017,2.50020972 C26.0743017,2.22758651 25.8498737,2 25.5730276,2 L2.57557582,2 C2.29656708,2 2.07430172,2.22395152 2.07430172,2.50020972 L2.07430172,4.29161983 C2.16229601,4.32776895 2.24657484,4.37718431 2.32427159,4.44016578 C2.67489458,4.72438289 2.67489458,4.72438289 3.88005396,5.70129239 C3.88005396,5.70129239 10.6794704,11.2129405 14.0791786,13.9687646 C14.288557,14.1384881 25.7342456,4.44251548 25.7342456,4.44251548 C25.8379961,4.35777268 25.9536449,4.29732242 26.0743017,4.26046986 L26.0743017,4.26046986 Z M26.0743017,6.74712472 L26.0743017,19.4997903 C26.0743017,19.7760485 25.8520364,20 25.5730276,20 L2.57557582,20 C2.29872978,20 2.07430172,19.7724135 2.07430172,19.4997903 L2.07430172,6.81209276 C2.22292526,6.93256791 2.40193944,7.07767789 2.62064199,7.2549595 L13.447902,16.031602 C13.8160649,16.3300372 14.3431523,16.329056 14.7102016,16.0292523 L26.0743017,6.74712472 L26.0743017,6.74712472 Z M0.0743017155,1.991155 C0.0743017155,0.891470458 0.974199231,0 2.06554602,0 L26.0830574,0 C27.1827913,0 28.0743017,0.889673948 28.0743017,1.991155 L28.0743017,20.008845 C28.0743017,21.1085295 27.1744042,22 26.0830574,22 L2.06554602,22 C0.965812159,22 0.0743017155,21.1103261 0.0743017155,20.008845 L0.0743017155,1.991155 L0.0743017155,1.991155 Z" id="mail" fill="#9B9B9B" sketch:type="MSShapeGroup"></path>
    </g>
</svg>