<?xml version="1.0" encoding="UTF-8" standalone="no"?>
<svg width="17px" height="29px" viewBox="0 0 17 29" version="1.1" xmlns="http://www.w3.org/2000/svg" xmlns:xlink="http://www.w3.org/1999/xlink" xmlns:sketch="http://www.bohemiancoding.com/sketch/ns">
    <!-- Generator: Sketch 3.2.1 (9971) - http://www.bohemiancoding.com/sketch -->
    <title>question</title>
    <desc>Created with Sketch.</desc>
    <defs></defs>
    <g id="Page-1" stroke="none" stroke-width="1" fill="none" fill-rule="evenodd" sketch:type="MSPage">
        <path d="M2.41229885,8.91551486 C3.28231848,8.91551486 3.92994417,8.85414194 4.15233779,7.93740141 C4.47080706,6.62462237 4.4276825,3.52790708 5.35698007,2.9489782 C7.16409857,1.82318908 11.2167784,3.03427638 11.1794177,6.39734798 C11.1794177,6.39734798 11.1794179,8.50402995 10.1755489,9.66785709 C9.17167984,10.8316842 6.12341916,13.8726885 5.75852747,15.430699 C5.35698018,17.1452211 5.7898543,19.2717827 6.33634144,20.0942004 C6.76674241,20.741918 7.00549714,20.0942004 7.00549714,20.0942004 C7.40699049,19.1312276 7.64638613,18.2447906 8.03396307,17.4881265 C8.69489244,16.1977981 10.083204,15.3458207 11.1794179,14.3334044 C12.6841158,12.9437295 16.1987598,10.262788 16.4664586,7.93740141 C16.7341573,5.61201483 16.3936773,4.52423184 15.9310627,3.49762505 C15.0352054,1.50959176 12.9863813,3.14147288e-12 8.56935947,-2.37655292e-20 C4.15233765,-3.14147291e-12 2.07507293,0.678825014 0.560849142,1.73103322 C1.49779312,7.14892328 1.6761287,7.4067356 2.41229885,8.91551486 Z M6.88775636,29 C8.54144013,29 9.88201569,27.6229364 9.88201569,25.9242424 C9.88201569,24.2255484 8.54144013,22.8484848 6.88775636,22.8484848 C5.2340726,22.8484848 3.89349703,24.2255484 3.89349703,25.9242424 C3.89349703,27.6229364 5.2340726,29 6.88775636,29 Z" id="question" fill="#9B9B9B" sketch:type="MSShapeGroup"></path>
    </g>
</svg>