<?xml version="1.0" encoding="UTF-8" standalone="no"?>
<svg width="22px" height="18px" viewBox="0 0 22 18" version="1.1" xmlns="http://www.w3.org/2000/svg" xmlns:xlink="http://www.w3.org/1999/xlink" xmlns:sketch="http://www.bohemiancoding.com/sketch/ns">
    <!-- Generator: Sketch 3.2.1 (9971) - http://www.bohemiancoding.com/sketch -->
    <title>quote-up</title>
    <desc>Created with Sketch.</desc>
    <defs></defs>
    <g id="Page-1" stroke="none" stroke-width="1" fill="none" fill-rule="evenodd" sketch:type="MSPage">
        <path d="M21.402,12.956 C21.402,14.2133396 20.9920041,15.2109963 20.172,15.949 C19.3519959,16.6870037 18.3133396,17.056 17.056,17.056 C15.5799926,17.056 14.3636715,16.5640049 13.407,15.58 C12.4503286,14.5959951 11.972,13.1473429 11.972,11.234 C11.972,9.42999098 12.2316641,7.88567309 12.751,6.601 C13.2703359,5.31632691 13.8989963,4.22300451 14.637,3.321 C15.3750037,2.41899549 16.1403294,1.6946694 16.933,1.148 C17.7256706,0.6013306 18.4226637,0.21866776 19.024,5.68434189e-14 L21.074,2.87 C19.8713273,3.47133634 18.9010037,4.27766161 18.163,5.289 C17.4249963,6.30033839 17.056,7.57132568 17.056,9.102 C17.2746678,9.04733306 17.5753314,9.02 17.958,9.02 C19.0513388,9.02 19.8986637,9.40266284 20.5,10.168 C21.1013363,10.9333372 21.402,11.8626612 21.402,12.956 L21.402,12.956 Z M9.43,12.956 C9.43,14.2133396 9.0200041,15.2109963 8.2,15.949 C7.3799959,16.6870037 6.34133962,17.056 5.084,17.056 C3.60799262,17.056 2.39167145,16.5640049 1.435,15.58 C0.47832855,14.5959951 0,13.1473429 0,11.234 C0,9.42999098 0.25966407,7.88567309 0.779,6.601 C1.29833593,5.31632691 1.92699631,4.22300451 2.665,3.321 C3.40300369,2.41899549 4.16832937,1.6946694 4.961,1.148 C5.75367063,0.6013306 6.45066366,0.21866776 7.052,5.68434189e-14 L9.102,2.87 C7.89932732,3.47133634 6.92900369,4.27766161 6.191,5.289 C5.45299631,6.30033839 5.084,7.57132568 5.084,9.102 C5.30266776,9.04733306 5.60333142,9.02 5.986,9.02 C7.0793388,9.02 7.92666366,9.40266284 8.528,10.168 C9.12933634,10.9333372 9.43,11.8626612 9.43,12.956 L9.43,12.956 Z" id="quote-up" fill="#4E4E4E" sketch:type="MSShapeGroup"></path>
    </g>
</svg>