<?xml version="1.0" encoding="UTF-8" standalone="no"?>
<svg width="22px" height="18px" viewBox="0 0 22 18" version="1.1" xmlns="http://www.w3.org/2000/svg" xmlns:xlink="http://www.w3.org/1999/xlink" xmlns:sketch="http://www.bohemiancoding.com/sketch/ns">
    <!-- Generator: Sketch 3.2.1 (9971) - http://www.bohemiancoding.com/sketch -->
    <title>quote-down</title>
    <desc>Created with Sketch.</desc>
    <defs></defs>
    <g id="Page-1" stroke="none" stroke-width="1" fill="none" fill-rule="evenodd" sketch:type="MSPage">
        <path d="M11.972,4.018 C11.972,2.76066038 12.3683294,1.77667022 13.161,1.066 C13.9536706,0.35532978 14.9786604,0 16.236,0 C17.7666743,0 19.0103286,0.47832855 19.967,1.435 C20.9236715,2.39167145 21.402,3.8266571 21.402,5.74 C21.402,7.54400902 21.1423359,9.10199344 20.623,10.414 C20.1036641,11.7260066 19.4750037,12.8329955 18.737,13.735 C17.9989963,14.6370045 17.2200041,15.3613306 16.4,15.908 C15.5799959,16.4546694 14.8693363,16.8373322 14.268,17.056 L12.218,14.268 C13.4753396,13.6119967 14.4593298,12.7920049 15.17,11.808 C15.8806702,10.8239951 16.236,9.53934126 16.236,7.954 C16.0173322,8.00866694 15.7166686,8.036 15.334,8.036 C14.2953281,8.036 13.4753363,7.66700369 12.874,6.929 C12.2726637,6.19099631 11.972,5.22067268 11.972,4.018 L11.972,4.018 Z M0,4.018 C0,2.76066038 0.39632937,1.77667022 1.189,1.066 C1.98167063,0.35532978 3.00666038,0 4.264,0 C5.79467432,0 7.03832855,0.47832855 7.995,1.435 C8.95167145,2.39167145 9.43,3.8266571 9.43,5.74 C9.43,7.54400902 9.17033593,9.10199344 8.651,10.414 C8.13166407,11.7260066 7.50300369,12.8329955 6.765,13.735 C6.02699631,14.6370045 5.2480041,15.3613306 4.428,15.908 C3.6079959,16.4546694 2.89733634,16.8373322 2.296,17.056 L0.246,14.268 C1.50333962,13.6119967 2.48732978,12.7920049 3.198,11.808 C3.90867022,10.8239951 4.264,9.53934126 4.264,7.954 C4.04533224,8.00866694 3.74466858,8.036 3.362,8.036 C2.32332814,8.036 1.50333634,7.66700369 0.902,6.929 C0.30066366,6.19099631 0,5.22067268 0,4.018 L0,4.018 Z" id="quote-down" fill="#4E4E4E" sketch:type="MSShapeGroup"></path>
    </g>
</svg>