<?xml version="1.0" encoding="utf-8"?><!DOCTYPE svg PUBLIC "-//W3C//DTD SVG 1.1//EN" "http://www.w3.org/Graphics/SVG/1.1/DTD/svg11.dtd"><svg version="1.1" baseProfile="full" xmlns="http://www.w3.org/2000/svg" xmlns:xlink="http://www.w3.org/1999/xlink" xmlns:ev="http://www.w3.org/2001/xml-events"   height="85px"   width="84px" ><path fill="rgb( 255, 255, 255 )" d="M83.9970000000001,80.0360000000001 C83.9970000000001,80.0360000000001 59.171,55.211 59.171,55.211 C63.806,49.489 66.595,42.2139999999999 66.595,34.296 C66.595,15.934 51.658,0.99700000000007 33.298,0.99700000000007 C14.939,0.99700000000007 0.00199999999995,15.934 0.00199999999995,34.296 C0.00199999999995,52.6559999999999 14.939,67.5940000000001 33.298,67.5940000000001 C41.2190000000001,67.5940000000001 48.494,64.8040000000001 54.215,60.1669999999999 C54.215,60.1669999999999 79.039,84.992 79.039,84.992 C79.039,84.992 83.9970000000001,80.0360000000001 83.9970000000001,80.0360000000001 ZM3.50699999999995,34.296 C3.50699999999995,17.866 16.871,4.50199999999995 33.298,4.50199999999995 C49.726,4.50199999999995 63.09,17.866 63.09,34.296 C63.09,50.7260000000001 49.726,64.0889999999999 33.298,64.0889999999999 C16.871,64.0889999999999 3.50699999999995,50.7260000000001 3.50699999999995,34.296 Z "/></svg>